<svg id="Layer_1" data-name="Layer 1" xmlns="http://www.w3.org/2000/svg" viewBox="0 0 64 64"><defs><style>.cls-1{fill:#1b1464;}</style></defs><title>direct</title><path class="cls-1" d="M22.75,35.45l8.71-.21A.5.5,0,0,1,32,36c-1.4,3.94-3.13,8.27-5.06,13.22a.49.49,0,0,0,.84.47c5.63-7.53,10.5-14,16-20.39a.53.53,0,0,0-.4-.88H35.12a.53.53,0,0,1-.5-.72c.56-1.53,5.6-12.39,5.6-12.39H29.28c-.06,0-6.4,17.63-7,19.45C22.15,35.09,22.3,35.46,22.75,35.45Z"/><path d="M33,57.22A24.61,24.61,0,1,1,57.64,32.61,24.65,24.65,0,0,1,33,57.22Zm0-46.8A22.19,22.19,0,1,0,55.21,32.61,22.22,22.22,0,0,0,33,10.42Z"/></svg>