<svg xmlns="http://www.w3.org/2000/svg" viewBox="0 0 47.52 47.52"><defs><style>.cls-1,.cls-2{fill:none;}.cls-1,.cls-2,.cls-3{stroke:#000;stroke-miterlimit:10;}.cls-2{stroke-linecap:round;}.cls-3{stroke-width:0.5px;}</style></defs><title>dishwasher</title><g id="Layer_2" data-name="Layer 2"><g id="Layer_1-2" data-name="Layer 1"><path d="M43.89,47.52H3.64A3.64,3.64,0,0,1,0,43.89V3.64A3.64,3.64,0,0,1,3.64,0H43.89a3.64,3.64,0,0,1,3.63,3.64V43.89A3.64,3.64,0,0,1,43.89,47.52ZM3.64,1.45A2.19,2.19,0,0,0,1.45,3.64V43.89a2.19,2.19,0,0,0,2.19,2.18H43.89a2.19,2.19,0,0,0,2.18-2.18V3.64a2.19,2.19,0,0,0-2.18-2.19Z"/><path d="M5.33,6.55A2.19,2.19,0,1,1,7.52,4.36,2.19,2.19,0,0,1,5.33,6.55Zm0-3.4A1.22,1.22,0,1,0,6.55,4.36,1.22,1.22,0,0,0,5.33,3.15Z"/><path d="M10.43,6.55a2.19,2.19,0,1,1,2.18-2.19A2.19,2.19,0,0,1,10.43,6.55Zm0-3.4a1.22,1.22,0,1,0,1.21,1.21A1.22,1.22,0,0,0,10.43,3.15Z"/><path d="M15.52,6.55A2.19,2.19,0,1,1,17.7,4.36,2.18,2.18,0,0,1,15.52,6.55Zm0-3.4a1.22,1.22,0,1,0,1.21,1.21A1.21,1.21,0,0,0,15.52,3.15Z"/><path d="M43.4,8.73H3.88a.73.73,0,0,1,0-1.46H43.4a.73.73,0,0,1,0,1.46Z"/><circle class="cls-1" cx="30" cy="28.89" r="6"/><path class="cls-1" d="M16.5,29.79c1.71,0,4-2.4,4-6.4h-8C12.5,27.39,14.9,29.79,16.5,29.79Z"/><line class="cls-1" x1="16.5" y1="29.79" x2="16.5" y2="34.59"/><line class="cls-2" x1="14.1" y1="34.59" x2="18.9" y2="34.59"/><path class="cls-3" d="M37.25,43.39H10.78A2.4,2.4,0,0,1,8.39,41V14.53a2.39,2.39,0,0,1,2.39-2.39H37.25a2.39,2.39,0,0,1,2.39,2.39V41A2.4,2.4,0,0,1,37.25,43.39ZM10.78,13.09a1.44,1.44,0,0,0-1.43,1.44V41a1.43,1.43,0,0,0,1.43,1.43H37.25A1.44,1.44,0,0,0,38.69,41V14.53a1.45,1.45,0,0,0-1.44-1.44Z"/></g></g></svg>