<svg xmlns="http://www.w3.org/2000/svg" viewBox="0 0 47.52 47.52"><defs><style>.cls-1{stroke:#000;stroke-miterlimit:10;}</style></defs><title>dryer</title><g id="Layer_2" data-name="Layer 2"><g id="Layer_1-2" data-name="Layer 1"><path d="M43.89,47.52H3.64A3.64,3.64,0,0,1,0,43.89V3.64A3.64,3.64,0,0,1,3.64,0H43.89a3.64,3.64,0,0,1,3.63,3.64V43.89A3.64,3.64,0,0,1,43.89,47.52ZM3.64,1.45A2.19,2.19,0,0,0,1.45,3.64V43.89a2.19,2.19,0,0,0,2.19,2.18H43.89a2.19,2.19,0,0,0,2.18-2.18V3.64a2.19,2.19,0,0,0-2.18-2.19Z"/><path d="M23.64,43.61A14.53,14.53,0,0,1,9.13,29.09V29a12.32,12.32,0,0,1,.67-4.27c1.71-5.05,7-10.15,13.8-10.15h0A14.75,14.75,0,0,1,38.16,29.09,14.54,14.54,0,0,1,23.64,43.61ZM23.6,16c-6.12,0-10.88,4.6-12.43,9.15a11.52,11.52,0,0,0-.59,3.8v.1a13.06,13.06,0,0,0,26.12,0c0-7.78-6.75-13-13.06-13Z"/><path d="M5.33,6.55A2.19,2.19,0,1,1,7.52,4.36,2.19,2.19,0,0,1,5.33,6.55Zm0-3.4A1.22,1.22,0,1,0,6.55,4.36,1.22,1.22,0,0,0,5.33,3.15Z"/><path d="M10.43,6.55a2.19,2.19,0,1,1,2.18-2.19A2.19,2.19,0,0,1,10.43,6.55Zm0-3.4a1.22,1.22,0,1,0,1.21,1.21A1.22,1.22,0,0,0,10.43,3.15Z"/><path d="M15.52,6.55A2.19,2.19,0,1,1,17.7,4.36,2.18,2.18,0,0,1,15.52,6.55Zm0-3.4a1.22,1.22,0,1,0,1.21,1.21A1.21,1.21,0,0,0,15.52,3.15Z"/><path class="cls-1" d="M31.71,28a.41.41,0,0,1-.23-.07c-2.7-1.67-3.81-1.75-5.09-1.67a8.29,8.29,0,0,0-2.9.85,7.9,7.9,0,0,1-3.14.84,6.34,6.34,0,0,1-4.61-1.52l-.24-.19a.43.43,0,0,1,.42-.76,2,2,0,0,1,.39.29,5.49,5.49,0,0,0,4,1.31,7.2,7.2,0,0,0,2.8-.77,8.94,8.94,0,0,1,3.19-.92c1.63-.1,2.94.15,5.6,1.8a.43.43,0,0,1,.14.6A.42.42,0,0,1,31.71,28Z"/><path class="cls-1" d="M31.71,32a.41.41,0,0,1-.23-.07c-2.7-1.67-3.81-1.75-5.09-1.67a8.29,8.29,0,0,0-2.9.85,7.9,7.9,0,0,1-3.14.84,6.34,6.34,0,0,1-4.61-1.52l-.24-.19a.43.43,0,0,1,.42-.76,2,2,0,0,1,.39.29,5.49,5.49,0,0,0,4,1.31,7.2,7.2,0,0,0,2.8-.77,8.94,8.94,0,0,1,3.19-.92c1.63-.1,2.94.15,5.6,1.8a.43.43,0,0,1,.14.6A.42.42,0,0,1,31.71,32Z"/><path d="M43.4,8.73H3.88a.73.73,0,0,1,0-1.46H43.4a.73.73,0,0,1,0,1.46Z"/></g></g></svg>