<svg id="Layer_1" data-name="Layer 1" xmlns="http://www.w3.org/2000/svg" viewBox="0 0 64 64"><title>fireplace</title><path d="M51.42,54.69H12.62a1.7,1.7,0,0,1-1.7-1.7V19a.73.73,0,0,1,.73-.72H52.39a.72.72,0,0,1,.72.72V53A1.7,1.7,0,0,1,51.42,54.69Zm-39-34.92V53a.24.24,0,0,0,.24.24h38.8a.24.24,0,0,0,.24-.24V19.77Z"/><path d="M51.9,19.77H12.62A4.13,4.13,0,0,1,8.5,15.65v-.49A4.13,4.13,0,0,1,12.62,11H51.9A4.12,4.12,0,0,1,56,15.16v.49A4.12,4.12,0,0,1,51.9,19.77ZM12.62,12.5A2.67,2.67,0,0,0,10,15.16v.49a2.68,2.68,0,0,0,2.67,2.67H51.9a2.68,2.68,0,0,0,2.67-2.67v-.49A2.67,2.67,0,0,0,51.9,12.5Z"/><path d="M46.08,54.69H18.44a.73.73,0,0,1-.73-.73V29.45a3.4,3.4,0,0,1,3.42-3.37H43.39a3.4,3.4,0,0,1,3.42,3.37V54A.73.73,0,0,1,46.08,54.69ZM19.17,53.23H45.36V29.45a2,2,0,0,0-2-1.92H21.13a1.94,1.94,0,0,0-2,1.92Z"/><path d="M35.41,51.54l-.16,0A6.08,6.08,0,0,1,30.56,46a5.74,5.74,0,0,1,1.69-4.31,2,2,0,0,0,.54-2.48c-1.35-3.78-1.56-5.39-.21-8.08a.73.73,0,1,1,1.3.65c-1.07,2.13-1,3.3.28,6.94a3.34,3.34,0,0,1-.82,3.93A4.32,4.32,0,0,0,32,46a4.58,4.58,0,0,0,3.56,4.14.73.73,0,0,1-.17,1.44Z"/><path d="M25.23,48.87H18.44a.73.73,0,0,1,0-1.46h6.79a.73.73,0,0,1,0,1.46Z"/><path d="M46.08,48.87H38.81a.73.73,0,1,1,0-1.46h7.27a.73.73,0,0,1,0,1.46Z"/><path d="M32.75,52c-3.52,0-7-.65-8.21-5.37a10.73,10.73,0,0,1,.31-6.28c1.08-3,.67-4,.52-4.17a.74.74,0,0,1,0-.85.73.73,0,0,1,.8-.27c3.6,1.08,4.07,2.68,4.07,4.27,0,0,0,0,0-.05a2.15,2.15,0,0,0-.12-1.77A4.81,4.81,0,0,1,30,33.7a6.45,6.45,0,0,1,3.24-3.2.71.71,0,0,1,.75.11.75.75,0,0,1,.25.71s-.54,2.75,1,3.76c2.46,1.73,5.14,4.83,5.29,8.35a8.72,8.72,0,0,1-2.16,6.44A7.29,7.29,0,0,1,32.75,52ZM27,36.93a10.92,10.92,0,0,1-.8,3.92A9.17,9.17,0,0,0,26,46.27c.95,3.59,3.21,4.3,6.8,4.3a6,6,0,0,0,4.47-1.7A7.34,7.34,0,0,0,39,43.49c-.13-3-2.59-5.76-4.66-7.21a4.4,4.4,0,0,1-1.68-3.74,4,4,0,0,0-1.34,1.7,3.41,3.41,0,0,0,.17,2.69,3.54,3.54,0,0,1,.12,3,3.14,3.14,0,0,1-1.77,1.68.74.74,0,0,1-.92-.46,4,4,0,0,1-.12-1.46C28.81,38.64,28.84,37.74,27,36.93Z"/></svg>