<svg id="Layer_1" data-name="Layer 1" xmlns="http://www.w3.org/2000/svg" viewBox="0 0 64 64"><defs><style>.cls-1{fill:#fff;}.cls-2{fill:#ffc300;}</style></defs><title>lightbulb</title><path d="M35.5,56.43h-7a4.15,4.15,0,0,1-4.16-4.17l0-11.91a15.33,15.33,0,1,1,15.29.27V52.28A4.17,4.17,0,0,1,35.5,56.43ZM32.24,13.52A13.75,13.75,0,0,0,25.46,39.3l.38.21,0,12.76A2.71,2.71,0,0,0,28.52,55h7a2.7,2.7,0,0,0,2.7-2.71l0-12.53.4-.21a13.74,13.74,0,0,0-5.16-26C33.06,13.53,32.65,13.52,32.24,13.52Z"/><path class="cls-1" d="M25.17,39.81a12.77,12.77,0,0,0,5.44,1.7"/><path d="M30.61,42.24a13.41,13.41,0,0,1-5.81-1.8.73.73,0,1,1,.74-1.25,12.32,12.32,0,0,0,5.07,1.59.73.73,0,1,1,0,1.46Z"/><rect x="25.11" y="50.13" width="13.82" height="1.45"/><circle class="cls-2" cx="32.26" cy="27.22" r="12.49"/><path d="M31.9,35.1a.73.73,0,0,1-.73-.73V27.85a.74.74,0,0,1,.23-.53l3.35-3.1-3.4-3.89a.73.73,0,0,1,1.1-1l3.86,4.43a.72.72,0,0,1-.06,1l-3.62,3.36v6.2A.73.73,0,0,1,31.9,35.1Z"/><path d="M41.87,42.53a.71.71,0,0,1-.61-.33.73.73,0,0,1,.21-1,16.85,16.85,0,0,0,3.68-25,.73.73,0,0,1,.09-1,.72.72,0,0,1,1,.09,18.32,18.32,0,0,1-4,27.12A.71.71,0,0,1,41.87,42.53Z"/><path d="M19.59,15.64a.74.74,0,0,1-.5-.2.73.73,0,0,1,0-1A18.31,18.31,0,0,1,42.4,11.85a.73.73,0,1,1-.81,1.21,16.84,16.84,0,0,0-21.48,2.36A.7.7,0,0,1,19.59,15.64Z"/><path d="M22.73,42.58a.72.72,0,0,1-.4-.12A18.25,18.25,0,0,1,14,27.09a18,18,0,0,1,.25-3,.73.73,0,0,1,1.44.23,16.36,16.36,0,0,0-.23,2.8,16.8,16.8,0,0,0,7.7,14.15.74.74,0,0,1,.22,1A.75.75,0,0,1,22.73,42.58Z"/></svg>