<svg id="Layer_1" data-name="Layer 1" xmlns="http://www.w3.org/2000/svg" viewBox="0 0 64 64"><defs><style>.cls-1{fill:#b3b3b3;}</style></defs><title>no_bus</title><path class="cls-1" d="M47.1,45.79H16.9a3.91,3.91,0,0,1-3.9-3.9v-25A3.91,3.91,0,0,1,16.9,13H47.1A3.91,3.91,0,0,1,51,16.9v25A3.91,3.91,0,0,1,47.1,45.79ZM16.9,14.56a2.34,2.34,0,0,0-2.34,2.34v25a2.34,2.34,0,0,0,2.34,2.34H47.1a2.34,2.34,0,0,0,2.34-2.34v-25a2.34,2.34,0,0,0-2.34-2.34Z"/><path class="cls-1" d="M20.81,51h-2.6a2.09,2.09,0,0,1-2.09-2.08V45a.78.78,0,0,1,.78-.78h5.21a.78.78,0,0,1,.78.78v3.91A2.08,2.08,0,0,1,20.81,51Zm-3.13-5.21v3.13a.53.53,0,0,0,.53.52h2.6a.53.53,0,0,0,.52-.52V45.79Z"/><path class="cls-1" d="M46.05,51h-2.6a2.08,2.08,0,0,1-2.08-2.08V45a.78.78,0,0,1,.78-.78h5.21a.78.78,0,0,1,.78.78v3.91A2.09,2.09,0,0,1,46.05,51Zm-3.12-5.21v3.13a.53.53,0,0,0,.52.52h2.6a.53.53,0,0,0,.53-.52V45.79Z"/><path class="cls-1" d="M42.15,16.9H21.33a.78.78,0,1,1,0-1.56H42.15a.78.78,0,1,1,0,1.56Z"/><path class="cls-1" d="M45.27,36.16H19a2.87,2.87,0,0,1-2.87-2.86V20.55A2.88,2.88,0,0,1,19,17.68H45.27a2.88,2.88,0,0,1,2.87,2.87V33.3A2.87,2.87,0,0,1,45.27,36.16ZM19,19.25a1.31,1.31,0,0,0-1.31,1.3V33.3A1.31,1.31,0,0,0,19,34.6H45.27a1.31,1.31,0,0,0,1.31-1.3V20.55a1.31,1.31,0,0,0-1.31-1.3Z"/><path class="cls-1" d="M19.51,42.93a2.86,2.86,0,1,1,2.86-2.86A2.87,2.87,0,0,1,19.51,42.93Zm0-4.16a1.3,1.3,0,1,0,1.3,1.3A1.3,1.3,0,0,0,19.51,38.77Z"/><path class="cls-1" d="M44.75,42.93a2.86,2.86,0,1,1,2.87-2.86A2.86,2.86,0,0,1,44.75,42.93Zm0-4.16a1.3,1.3,0,1,0,1.3,1.3A1.3,1.3,0,0,0,44.75,38.77Z"/></svg>