<svg xmlns="http://www.w3.org/2000/svg" viewBox="0 0 43.58 41.63"><defs><style>.cls-1{fill:none;stroke-width:2px;}.cls-1,.cls-2{stroke:#ccc;stroke-miterlimit:10;}</style></defs><title>no_coffee</title><g id="Layer_2" data-name="Layer 2"><g id="Layer_1-2" data-name="Layer 1"><path class="cls-1" d="M1,20.12h35.5C36,33.62,29,40.85,19,40.62,9.32,40.4,1.54,32.62,1,20.12Z"/><path class="cls-1" d="M33.36,33.08a6.73,6.73,0,0,0,9-4.22,6.73,6.73,0,0,0-5.4-8.1"/><path class="cls-2" d="M10.94,16.94a.46.46,0,0,1,.06-.23c1.68-2.71,1.75-3.82,1.68-5.09a8.51,8.51,0,0,0-.85-2.9A7.79,7.79,0,0,1,11,5.58,6.39,6.39,0,0,1,12.5,1a1.69,1.69,0,0,0,.19-.24.45.45,0,0,1,.6-.18.43.43,0,0,1,.17.59,2.78,2.78,0,0,1-.29.39,5.53,5.53,0,0,0-1.32,4.05,7,7,0,0,0,.78,2.79,9,9,0,0,1,.92,3.2c.1,1.62-.15,2.94-1.81,5.6a.43.43,0,0,1-.8-.23Z"/><path class="cls-2" d="M17.94,16.94a.46.46,0,0,1,.06-.23c1.68-2.71,1.75-3.82,1.68-5.09a8.51,8.51,0,0,0-.85-2.9A7.79,7.79,0,0,1,18,5.58,6.39,6.39,0,0,1,19.5,1a1.69,1.69,0,0,0,.19-.24.45.45,0,0,1,.6-.18.43.43,0,0,1,.17.59,2.78,2.78,0,0,1-.29.39,5.53,5.53,0,0,0-1.32,4.05,7,7,0,0,0,.78,2.79,9,9,0,0,1,.92,3.2c.1,1.62-.15,2.94-1.81,5.6a.43.43,0,0,1-.8-.23Z"/><path class="cls-2" d="M24.94,16.94a.46.46,0,0,1,.06-.23c1.68-2.71,1.75-3.82,1.68-5.09a8.51,8.51,0,0,0-.85-2.9A7.79,7.79,0,0,1,25,5.58,6.39,6.39,0,0,1,26.5,1a1.69,1.69,0,0,0,.19-.24.45.45,0,0,1,.6-.18.43.43,0,0,1,.17.59,2.78,2.78,0,0,1-.29.39,5.53,5.53,0,0,0-1.32,4.05,7,7,0,0,0,.78,2.79,9,9,0,0,1,.92,3.2c.1,1.62-.15,2.94-1.81,5.6a.43.43,0,0,1-.8-.23Z"/></g></g></svg>