<svg xmlns="http://www.w3.org/2000/svg" viewBox="0 0 47.52 47.52"><defs><style>.cls-1{fill:#b3b3b3;}.cls-2,.cls-3{fill:none;stroke:#b3b3b3;stroke-miterlimit:10;}.cls-3{stroke-linecap:round;}</style></defs><title>no_dishwasher</title><g id="Layer_2" data-name="Layer 2"><g id="Layer_1-2" data-name="Layer 1"><path class="cls-1" d="M43.89,47.52H3.64A3.64,3.64,0,0,1,0,43.89V3.64A3.64,3.64,0,0,1,3.64,0H43.89a3.64,3.64,0,0,1,3.63,3.64V43.89A3.64,3.64,0,0,1,43.89,47.52ZM3.64,1.45A2.19,2.19,0,0,0,1.45,3.64V43.89a2.19,2.19,0,0,0,2.19,2.18H43.89a2.19,2.19,0,0,0,2.18-2.18V3.64a2.19,2.19,0,0,0-2.18-2.19Z"/><path class="cls-1" d="M5.33,6.55A2.19,2.19,0,1,1,7.52,4.36,2.19,2.19,0,0,1,5.33,6.55Zm0-3.4A1.22,1.22,0,1,0,6.55,4.36,1.22,1.22,0,0,0,5.33,3.15Z"/><path class="cls-1" d="M10.43,6.55a2.19,2.19,0,1,1,2.18-2.19A2.19,2.19,0,0,1,10.43,6.55Zm0-3.4a1.22,1.22,0,1,0,1.21,1.21A1.22,1.22,0,0,0,10.43,3.15Z"/><path class="cls-1" d="M15.52,6.55A2.19,2.19,0,1,1,17.7,4.36,2.18,2.18,0,0,1,15.52,6.55Zm0-3.4a1.22,1.22,0,1,0,1.21,1.21A1.21,1.21,0,0,0,15.52,3.15Z"/><path class="cls-1" d="M43.4,8.73H3.88a.73.73,0,0,1,0-1.46H43.4a.73.73,0,0,1,0,1.46Z"/><path class="cls-1" d="M37,43.39H10.53A2.4,2.4,0,0,1,8.14,41V14.53a2.39,2.39,0,0,1,2.39-2.39H37a2.4,2.4,0,0,1,2.39,2.39V41A2.4,2.4,0,0,1,37,43.39ZM10.53,13.09a1.45,1.45,0,0,0-1.44,1.44V41a1.44,1.44,0,0,0,1.44,1.43H37A1.43,1.43,0,0,0,38.43,41V14.53A1.44,1.44,0,0,0,37,13.09Z"/><circle class="cls-2" cx="29.75" cy="28.89" r="6"/><path class="cls-2" d="M16.25,29.79c1.7,0,4-2.4,4-6.4h-8C12.25,27.39,14.65,29.79,16.25,29.79Z"/><line class="cls-2" x1="16.25" y1="29.79" x2="16.25" y2="34.59"/><line class="cls-3" x1="13.85" y1="34.59" x2="18.65" y2="34.59"/></g></g></svg>