<svg xmlns="http://www.w3.org/2000/svg" viewBox="0 0 47.52 47.52"><defs><style>.cls-1,.cls-2{fill:#b3b3b3;}.cls-2{stroke:#b3b3b3;stroke-miterlimit:10;}</style></defs><title>no_dryer</title><g id="Layer_2" data-name="Layer 2"><g id="Layer_1-2" data-name="Layer 1"><path class="cls-1" d="M43.89,47.52H3.64A3.64,3.64,0,0,1,0,43.89V3.64A3.64,3.64,0,0,1,3.64,0H43.89a3.64,3.64,0,0,1,3.63,3.64V43.89A3.64,3.64,0,0,1,43.89,47.52ZM3.64,1.45A2.19,2.19,0,0,0,1.45,3.64V43.89a2.19,2.19,0,0,0,2.19,2.18H43.89a2.19,2.19,0,0,0,2.18-2.18V3.64a2.19,2.19,0,0,0-2.18-2.19Z"/><path class="cls-1" d="M23.64,43.61A14.53,14.53,0,0,1,9.13,29.09V29a12.35,12.35,0,0,1,.67-4.27c1.71-5.06,7-10.17,13.84-10.15A14.75,14.75,0,0,1,38.16,29.09,14.54,14.54,0,0,1,23.64,43.61ZM23.6,16c-6.12,0-10.88,4.6-12.43,9.15a11.52,11.52,0,0,0-.59,3.8v.1a13.06,13.06,0,0,0,26.12,0c0-7.78-6.75-13-13.06-13Z"/><path class="cls-1" d="M5.33,6.55A2.19,2.19,0,1,1,7.52,4.36,2.19,2.19,0,0,1,5.33,6.55Zm0-3.4A1.22,1.22,0,1,0,6.55,4.36,1.22,1.22,0,0,0,5.33,3.15Z"/><path class="cls-1" d="M10.43,6.55a2.19,2.19,0,1,1,2.18-2.19A2.19,2.19,0,0,1,10.43,6.55Zm0-3.4a1.22,1.22,0,1,0,1.21,1.21A1.22,1.22,0,0,0,10.43,3.15Z"/><path class="cls-1" d="M15.52,6.55A2.19,2.19,0,1,1,17.7,4.36,2.18,2.18,0,0,1,15.52,6.55Zm0-3.4a1.22,1.22,0,1,0,1.21,1.21A1.21,1.21,0,0,0,15.52,3.15Z"/><path class="cls-1" d="M43.4,8.73H3.88a.73.73,0,0,1,0-1.46H43.4a.73.73,0,0,1,0,1.46Z"/><path class="cls-2" d="M31.46,28a.39.39,0,0,1-.23-.07c-2.71-1.67-3.82-1.75-5.09-1.67a8.23,8.23,0,0,0-2.9.85A8,8,0,0,1,20.1,28a6.32,6.32,0,0,1-4.61-1.52l-.24-.19a.44.44,0,0,1-.18-.59.43.43,0,0,1,.59-.17,1.77,1.77,0,0,1,.39.29A5.5,5.5,0,0,0,20.1,27.1a7.2,7.2,0,0,0,2.79-.77,9,9,0,0,1,3.2-.92c1.62-.1,2.94.15,5.6,1.8a.44.44,0,0,1,.14.6A.43.43,0,0,1,31.46,28Z"/><path class="cls-2" d="M31.46,32a.39.39,0,0,1-.23-.07c-2.71-1.67-3.82-1.75-5.09-1.67a8.23,8.23,0,0,0-2.9.85A8,8,0,0,1,20.1,32a6.32,6.32,0,0,1-4.61-1.52l-.24-.19a.44.44,0,0,1-.18-.59.43.43,0,0,1,.59-.17,1.77,1.77,0,0,1,.39.29A5.5,5.5,0,0,0,20.1,31.1a7.2,7.2,0,0,0,2.79-.77,9,9,0,0,1,3.2-.92c1.62-.1,2.94.15,5.6,1.8a.44.44,0,0,1,.14.6A.43.43,0,0,1,31.46,32Z"/></g></g></svg>