<svg id="Layer_1" data-name="Layer 1" xmlns="http://www.w3.org/2000/svg" viewBox="0 0 64 64"><defs><style>.cls-1{fill:#b3b3b3;}</style></defs><title>no_family</title><path class="cls-1" d="M46.09,27.14a6.43,6.43,0,1,1,6.43-6.42A6.43,6.43,0,0,1,46.09,27.14Zm0-11.39a5,5,0,1,0,5,5A5,5,0,0,0,46.09,15.75Z"/><path class="cls-1" d="M38.65,34.46l-1.36-.52c1.1-2.88,3.72-7.72,8.9-7.72v1.45C41.88,27.67,39.61,31.92,38.65,34.46Z"/><path class="cls-1" d="M46.19,45.17c-.87,0-1.68,0-2.4,0l0-1.45c.71,0,1.51,0,2.36,0Z"/><path class="cls-1" d="M46.19,45.17V43.71c6.7,0,7.35-.74,7.6-1,1.78-2,.79-5.49.41-6.79-.55-1.93-2.78-8.22-8-8.22V26.22c6.25,0,8.78,7.09,9.41,9.26C56,37,57.19,41,54.88,43.64,54.18,44.44,53,45.17,46.19,45.17Z"/><path class="cls-1" d="M18.94,26.9a6.43,6.43,0,1,1,6.42-6.43A6.44,6.44,0,0,1,18.94,26.9Zm0-11.4a5,5,0,1,0,5,5A5,5,0,0,0,18.94,15.5Z"/><path class="cls-1" d="M18.85,44.73c-6.81,0-8-.72-8.7-1.53C7.84,40.56,9,36.56,9.43,35.05c.63-2.18,3.16-9.27,9.42-9.27v1.46c-5.24,0-7.46,6.28-8,8.21-.38,1.3-1.37,4.75.42,6.8.24.28.89,1,7.6,1Z"/><path class="cls-1" d="M26.38,34c-1-2.53-3.23-6.77-7.53-6.77V25.78c5.17,0,7.79,4.83,8.89,7.71Z"/><polygon class="cls-1" points="26.44 34.17 26.38 34.01 27.74 33.49 27.8 33.66 26.44 34.17"/><path class="cls-1" d="M18.85,44.73V43.28c.92,0,1.77,0,2.53-.05l.05,1.46C20.65,44.72,19.78,44.73,18.85,44.73Z"/><path class="cls-1" d="M32.52,32.48a7.4,7.4,0,1,1,7.39-7.4A7.41,7.41,0,0,1,32.52,32.48Zm0-13.34a5.94,5.94,0,1,0,5.94,5.94A5.95,5.95,0,0,0,32.52,19.14Z"/><path class="cls-1" d="M22.74,44.11l-1.42-.31c.15-.67.31-1.23.43-1.64.72-2.5,3.63-10.65,10.78-10.65V33c-6.14,0-8.73,7.34-9.38,9.59C23,43,22.88,43.49,22.74,44.11Z"/><path class="cls-1" d="M32.53,53.21c-7.82,0-9.18-.82-10-1.73-1.56-1.78-2-4.36-1.24-7.68l1.42.31c-.63,2.84-.32,5,.91,6.41.32.37,1.07,1.23,8.88,1.23Z"/><path class="cls-1" d="M32.53,53.21V51.75c7.81,0,8.56-.86,8.88-1.23,2.11-2.41.94-6.44.51-8C41.27,40.31,38.67,33,32.53,33V31.51c7.16,0,10.06,8.15,10.78,10.64.5,1.73,1.82,6.32-.8,9.33C41.71,52.39,40.35,53.21,32.53,53.21Z"/></svg>