<svg id="Layer_1" data-name="Layer 1" xmlns="http://www.w3.org/2000/svg" viewBox="0 0 64 64"><defs><style>.cls-1{fill:#b3b3b3;}</style></defs><title>no_radio</title><g id="radio"><path class="cls-1" d="M46.15,57.39H19.91a4.33,4.33,0,0,1-4.34-4.33V14.2a4.33,4.33,0,0,1,4.34-4.33H46.15a4.33,4.33,0,0,1,4.33,4.33V53.06a4.39,4.39,0,0,1-1.27,3.06A4.31,4.31,0,0,1,46.15,57.39ZM19.91,11.32A2.89,2.89,0,0,0,17,14.2V53.06a2.89,2.89,0,0,0,2.89,2.88H46.15a2.85,2.85,0,0,0,2-.85,3,3,0,0,0,.85-2V14.2a2.88,2.88,0,0,0-2.88-2.88Z"/><path class="cls-1" d="M32.78,54a13.1,13.1,0,1,1,13.1-13.1A13.11,13.11,0,0,1,32.78,54Zm0-24.74A11.64,11.64,0,1,0,44.42,40.9,11.66,11.66,0,0,0,32.78,29.26Z"/><path class="cls-1" d="M32.9,44.54a3.64,3.64,0,1,1,3.76-3.64A3.7,3.7,0,0,1,32.9,44.54Zm0-5.82a2.19,2.19,0,1,0,2.31,2.18A2.25,2.25,0,0,0,32.9,38.72Z"/><path class="cls-1" d="M32.9,23.93a5,5,0,1,1,5-5A5,5,0,0,1,32.9,23.93Zm0-8.49A3.52,3.52,0,1,0,36.42,19,3.52,3.52,0,0,0,32.9,15.44Z"/><path class="cls-1" d="M39.09,40.66a.74.74,0,0,1-.72-.6,5,5,0,0,0-4-4.31.73.73,0,0,1,.32-1.42,6.51,6.51,0,0,1,5.1,5.47.73.73,0,0,1-.58.85Z"/><path class="cls-1" d="M33,50.8a10.34,10.34,0,0,1-8.9-5.12.72.72,0,1,1,1.24-.75,8.9,8.9,0,0,0,10.25,4,.73.73,0,1,1,.41,1.4A10.79,10.79,0,0,1,33,50.8Z"/></g></svg>