<svg id="Layer_1" data-name="Layer 1" xmlns="http://www.w3.org/2000/svg" viewBox="0 0 64 64"><title>radio</title><g id="radio"><path d="M45.89,57.39H19.65a4.34,4.34,0,0,1-4.34-4.33V14.2a4.34,4.34,0,0,1,4.34-4.33H45.89a4.34,4.34,0,0,1,4.34,4.33V53.06A4.39,4.39,0,0,1,49,56.12,4.33,4.33,0,0,1,45.89,57.39ZM19.65,11.32a2.88,2.88,0,0,0-2.88,2.88V53.06a2.88,2.88,0,0,0,2.88,2.88H45.89a2.86,2.86,0,0,0,2-.85,3,3,0,0,0,.84-2V14.2a2.88,2.88,0,0,0-2.88-2.88Z"/><path d="M32.53,54A13.1,13.1,0,1,1,45.62,40.9,13.11,13.11,0,0,1,32.53,54Zm0-24.74A11.64,11.64,0,1,0,44.17,40.9,11.66,11.66,0,0,0,32.53,29.26Z"/><path d="M32.65,44.54a3.64,3.64,0,1,1,3.76-3.64A3.71,3.71,0,0,1,32.65,44.54Zm0-5.82A2.19,2.19,0,1,0,35,40.9,2.25,2.25,0,0,0,32.65,38.72Z"/><path d="M32.65,23.93a5,5,0,1,1,5-5A5,5,0,0,1,32.65,23.93Zm0-8.49A3.52,3.52,0,1,0,36.17,19,3.53,3.53,0,0,0,32.65,15.44Z"/><path d="M38.83,40.66a.73.73,0,0,1-.71-.6,5.06,5.06,0,0,0-4-4.31.73.73,0,0,1-.55-.87.72.72,0,0,1,.86-.55,6.51,6.51,0,0,1,5.11,5.47.73.73,0,0,1-.59.85Z"/><path d="M32.77,50.8a10.35,10.35,0,0,1-8.9-5.12.74.74,0,0,1,.25-1,.73.73,0,0,1,1,.25,8.89,8.89,0,0,0,10.25,4,.73.73,0,0,1,.41,1.4A10.8,10.8,0,0,1,32.77,50.8Z"/></g></svg>