<svg id="Layer_1" data-name="Layer 1" xmlns="http://www.w3.org/2000/svg" viewBox="0 0 64 64"><title>rooms</title><g id="rooms"><path d="M41.49,54a1.47,1.47,0,0,1-.36,0L20,49.13V11.58A1.58,1.58,0,0,1,21.86,10l19.91,3.65a1.58,1.58,0,0,1,1.29,1.56V52.42a1.59,1.59,0,0,1-.59,1.24A1.62,1.62,0,0,1,41.49,54ZM21.41,48l20,4.58a.16.16,0,0,0,.14,0,.16.16,0,0,0,.06-.13V15.24a.18.18,0,0,0-.14-.17L21.6,11.42a.17.17,0,0,0-.13,0,.16.16,0,0,0-.06.13Z"/><path d="M20.94,49.3H9.64a.71.71,0,0,1-.71-.71.7.7,0,0,1,.71-.7h11.3a.7.7,0,0,1,.7.7A.7.7,0,0,1,20.94,49.3Z"/><path d="M54.36,49.3H42.59a.7.7,0,0,1-.7-.71.7.7,0,0,1,.7-.7H54.36a.7.7,0,0,1,.71.7A.71.71,0,0,1,54.36,49.3Z"/><path d="M45.89,48.59H44.48V11.83a.21.21,0,0,0-.21-.2H21.64V10.23H44.27a1.62,1.62,0,0,1,1.62,1.61Z"/><path d="M40.47,37.3a.7.7,0,0,1-.7-.71V32.12a.7.7,0,0,1,.7-.71.71.71,0,0,1,.71.71v4.47A.71.71,0,0,1,40.47,37.3Z"/></g></svg>