<svg id="Layer_1" data-name="Layer 1" xmlns="http://www.w3.org/2000/svg" viewBox="0 0 64 64"><defs><style>.cls-1{fill:#fff;}</style></defs><title>singlebed</title><g id="beds"><path d="M42.82,27.25H21.19V14.17a2.62,2.62,0,0,1,2.62-2.61h16.4a2.61,2.61,0,0,1,2.61,2.61Zm-20.2-1.43H41.4V14.17A1.19,1.19,0,0,0,40.21,13H23.81a1.18,1.18,0,0,0-1.19,1.18Z"/><path d="M45,42.22H19l2.19-16.4H42.81ZM20.63,40.79H43.37L41.56,27.25H22.44Z"/><path d="M21,52.44a.71.71,0,0,1-.72-.71v-4a.72.72,0,1,1,1.43,0v4A.71.71,0,0,1,21,52.44Z"/><path d="M43.06,52.44a.71.71,0,0,1-.71-.71v-4a.71.71,0,1,1,1.42,0v4A.71.71,0,0,1,43.06,52.44Z"/><polygon points="44.96 48.4 19.05 48.4 19.05 41.74 20.48 41.74 20.48 46.97 43.54 46.97 43.54 41.74 44.96 41.74 44.96 48.4"/><rect class="cls-1" x="27.37" y="18.69" width="9.74" height="9.98" rx="4.87" ry="4.87"/><path d="M35,29.39H29.51a2.86,2.86,0,0,1-2.85-2.86v-5.7A2.86,2.86,0,0,1,29.51,18H35a2.86,2.86,0,0,1,2.85,2.85v5.7A2.86,2.86,0,0,1,35,29.39Zm-5.47-10a1.43,1.43,0,0,0-1.42,1.43v5.7A1.43,1.43,0,0,0,29.51,28H35a1.43,1.43,0,0,0,1.43-1.43v-5.7A1.43,1.43,0,0,0,35,19.4Z"/></g></svg>