<svg id="Layer_1" data-name="Layer 1" xmlns="http://www.w3.org/2000/svg" viewBox="0 0 265 265"><defs><style>.cls-1{fill:none;stroke:#000;stroke-linecap:round;stroke-linejoin:round;stroke-width:6px;}</style></defs><title>basics</title><line class="cls-1" x1="59.21" y1="210.33" x2="182.21" y2="210.33"/><line class="cls-1" x1="59.21" y1="192.98" x2="182.21" y2="192.98"/><line class="cls-1" x1="184.04" y1="64.6" x2="227.5" y2="64.6"/><line class="cls-1" x1="37.5" y1="64.6" x2="59.21" y2="64.6"/><path class="cls-1" d="M195.33,37.5H71.26c-3.71,0-12.05,4.45-12.05,14V220a7.74,7.74,0,0,0,8,7.48h107a7.74,7.74,0,0,0,8-7.48V63.91s-1.55-15.63,7.62-15.63c3.86,0,7.28,1.78,7.28,7"/><path class="cls-1" d="M184,203.49h9.64c7.17,0,14.55-2,14.55-13V54.72c0-6.23.08-17.22-12.9-17.22"/></svg>