<svg id="Layer_1" data-name="Layer 1" xmlns="http://www.w3.org/2000/svg" viewBox="0 0 265 265"><defs><style>.cls-1,.cls-2{fill:none;}.cls-1,.cls-2,.cls-3{stroke:#000;stroke-miterlimit:10;stroke-width:6px;}.cls-1{stroke-linecap:round;}.cls-3{fill:#fff;}</style></defs><title>beds</title><g id="beds"><path class="cls-1" d="M61.69,49.5h141.5a8,8,0,0,1,8,8v52.38a0,0,0,0,1,0,0H53.69a0,0,0,0,1,0,0V57.5A8,8,0,0,1,61.69,49.5Z"/><polygon class="cls-1" points="226.69 172.66 38.19 172.66 53.69 109.88 211.19 109.88 226.69 172.66"/><line class="cls-1" x1="47.44" y1="198.82" x2="47.44" y2="215.5"/><line class="cls-1" x1="218.19" y1="198.82" x2="218.19" y2="215.5"/><polyline class="cls-2" points="37.5 174.3 37.5 198.82 227.5 198.82 227.5 174.3"/><rect class="cls-3" x="77.68" y="76.85" width="40.98" height="41.86" rx="9" ry="9"/><rect class="cls-3" x="144.26" y="76.85" width="40.98" height="41.86" rx="9" ry="9"/></g></svg>