<svg id="Layer_1" data-name="Layer 1" xmlns="http://www.w3.org/2000/svg" viewBox="0 0 265 265"><defs><style>.cls-1{fill:none;stroke:#000;stroke-linecap:round;stroke-linejoin:round;stroke-width:6px;}</style></defs><title>bus</title><rect class="cls-1" x="63" y="63" width="140" height="120" rx="12" ry="12"/><path class="cls-1" d="M75,183H95a0,0,0,0,1,0,0v15a5,5,0,0,1-5,5H80a5,5,0,0,1-5-5V183A0,0,0,0,1,75,183Z"/><path class="cls-1" d="M172,183h20a0,0,0,0,1,0,0v15a5,5,0,0,1-5,5H177a5,5,0,0,1-5-5V183A0,0,0,0,1,172,183Z"/><line class="cls-1" x1="172" y1="72" x2="92" y2="72"/><rect class="cls-1" x="75" y="81" width="117" height="65" rx="8" ry="8"/><circle class="cls-1" cx="85" cy="164" r="8"/><circle class="cls-1" cx="182" cy="164" r="8"/></svg>