<svg id="Layer_1" data-name="Layer 1" xmlns="http://www.w3.org/2000/svg" viewBox="0 0 265 265"><defs><style>.cls-1{fill:#f15a24;}.cls-2{fill:none;stroke:#000;stroke-linecap:round;stroke-linejoin:round;stroke-width:6px;}</style></defs><title>direct</title><path class="cls-1" d="M90.1,144.22l35.92-.87a2,2,0,0,1,2.12,2.91c-5.76,16.28-12.9,34.14-20.86,54.53a2,2,0,0,0,3.46,1.93c23.24-31,43.3-57.9,65.83-84.08A2.2,2.2,0,0,0,174.9,115l-33.75.06a2.21,2.21,0,0,1-2.07-3C141.4,105.79,162.16,61,162.16,61H117c-.26-.13-26.38,72.7-29.07,80.2C87.66,142.72,88.25,144.27,90.1,144.22Z"/><circle class="cls-2" cx="132.5" cy="132.5" r="96.5"/></svg>