<svg id="Layer_1" data-name="Layer 1" xmlns="http://www.w3.org/2000/svg" viewBox="0 0 265 265"><defs><style>.cls-1,.cls-2{fill:none;}.cls-1,.cls-2,.cls-3{stroke:#000;stroke-miterlimit:10;stroke-width:6px;}.cls-1{stroke-linecap:round;}.cls-3{fill:#fff;}</style></defs><title>dubblebed</title><g id="beds"><path class="cls-1" d="M62.07,49.5h141.5a8,8,0,0,1,8,8v52.38a0,0,0,0,1,0,0H54.07a0,0,0,0,1,0,0V57.5a8,8,0,0,1,8-8Z" transform="translate(0.57 -0.95) rotate(0.41)"/><polygon class="cls-1" points="226.4 173.33 37.9 171.99 53.85 109.31 211.35 110.44 226.4 173.33"/><line class="cls-1" x1="46.97" y1="198.21" x2="46.85" y2="214.89"/><line class="cls-1" x1="217.71" y1="199.43" x2="217.59" y2="216.11"/><polyline class="cls-2" points="37.2 173.62 37.03 198.14 227.02 199.5 227.2 174.97"/><rect class="cls-3" x="77.93" y="76.6" width="40.98" height="41.86" rx="9" ry="9" transform="translate(0.7 -0.7) rotate(0.41)"/><rect class="cls-3" x="144.51" y="77.08" width="40.98" height="41.86" rx="9" ry="9" transform="translate(0.7 -1.18) rotate(0.41)"/></g></svg>