<svg id="Layer_1" data-name="Layer 1" xmlns="http://www.w3.org/2000/svg" viewBox="0 0 265 265"><defs><style>.cls-1{fill:none;stroke:#000;stroke-miterlimit:10;stroke-width:6px;}</style></defs><title>familys</title><ellipse class="cls-1" cx="188.88" cy="81.95" rx="23.57" ry="23.65"/><path class="cls-1" d="M155,137.11c4-10.5,14-29.92,33.9-29.92"/><path class="cls-1" d="M188.88,179.34c-3.67,0-6.92-.05-9.8-.15"/><path class="cls-1" d="M188.88,179.34c28.64,0,31.82-3.22,33.6-5.27,8.44-9.68,4.06-24.87,2.35-30.81-1.14-3.93-10.37-36.08-35.95-36.08"/><ellipse class="cls-1" cx="76.12" cy="80.15" rx="23.57" ry="23.65"/><path class="cls-1" d="M76.12,177.54c-28.64,0-31.82-3.22-33.6-5.27-8.44-9.68-4.06-24.87-2.35-30.81,1.14-3.93,10.37-36.08,35.95-36.08"/><path class="cls-1" d="M110,135.25c-4-10.51-14-29.87-33.88-29.87"/><path class="cls-1" d="M110.25,135.92l-.25-.67"/><path class="cls-1" d="M76.12,177.54c4,0,7.48-.06,10.55-.18"/><ellipse class="cls-1" cx="132.56" cy="99.17" rx="27.27" ry="27.37"/><path class="cls-1" d="M89.25,177.34c.58-2.65,1.24-4.93,1.72-6.58,1.31-4.55,12-41.74,41.59-41.74"/><path class="cls-1" d="M132.56,212.5c-33.13,0-36.81-3.72-38.88-6.1-7.42-8.51-6.28-20.69-4.43-29.06"/><path class="cls-1" d="M132.56,212.5c33.13,0,36.81-3.72,38.88-6.1,9.77-11.2,4.7-28.77,2.71-35.64-1.31-4.55-12-41.74-41.59-41.74"/></svg>