<svg id="Layer_1" data-name="Layer 1" xmlns="http://www.w3.org/2000/svg" viewBox="0 0 265 265"><defs><style>.cls-1{fill:none;stroke:#000;stroke-linecap:round;stroke-linejoin:round;stroke-width:6px;}</style></defs><title>fireplace</title><path class="cls-1" d="M48,75H216a0,0,0,0,1,0,0V215a4,4,0,0,1-4,4H52a4,4,0,0,1-4-4V75A0,0,0,0,1,48,75Z"/><rect class="cls-1" x="38" y="45" width="190" height="30" rx="14" ry="14"/><path class="cls-1" d="M178.9,107H87.1A11,11,0,0,0,76,117.9V219H190V117.9A11,11,0,0,0,178.9,107Z"/><path class="cls-1" d="M137,126c-5,10-4.43,15.79,1,31,5,14-9,11-9,29a21.88,21.88,0,0,0,17,20"/><line class="cls-1" x1="75" y1="195" x2="104" y2="195"/><line class="cls-1" x1="160" y1="195" x2="190" y2="195"/><path class="cls-1" d="M122,165c-2-6,5-15-15-21,3,4.14.64,13.23-1.73,19.94a41,41,0,0,0-1.2,24.13C108.51,204.85,119.64,208,135,208c22,0,29.35-17.51,28.7-32.29-.56-12.74-10.21-24.86-20.5-32.09-8-5.35-5.2-18.61-5.2-18.61s-18.58,7.94-11,25c4,9-2,14-5,15"/></svg>