<svg id="Layer_1" data-name="Layer 1" xmlns="http://www.w3.org/2000/svg" viewBox="0 0 265 265"><defs><style>.cls-1,.cls-5,.cls-6{fill:none;}.cls-1,.cls-2,.cls-3,.cls-5,.cls-6{stroke:#000;stroke-width:6px;}.cls-1,.cls-2,.cls-3,.cls-6{stroke-miterlimit:10;}.cls-2,.cls-3{fill:#fff;}.cls-2,.cls-5,.cls-6{stroke-linecap:round;}.cls-4{fill:#ffc300;}.cls-5{stroke-linejoin:round;}</style></defs><title>help</title><path class="cls-1" d="M160.07,164a59.71,59.71,0,0,0,32.54-57.4c-2-29.33-25.59-52.9-54.89-55.34-35.64-3-65.48,24.84-65.48,59.57A59.7,59.7,0,0,0,103,163l-.1,50.85A14.17,14.17,0,0,0,117.07,228h28.77A14.17,14.17,0,0,0,160,213.85Z"/><path class="cls-2" d="M103.24,162.45s11.81,7,22.44,7"/><line class="cls-3" x1="103" y1="208" x2="160" y2="208"/><circle class="cls-4" cx="132.5" cy="109.5" r="52.5"/><polyline class="cls-5" points="131 80.12 146.93 98.37 131 113.12 131 140"/><path class="cls-6" d="M187.94,63.29a72.49,72.49,0,0,1-15.82,107.38"/><path class="cls-6" d="M80.24,59.76a72.5,72.5,0,0,1,92.4-10.15"/><path class="cls-6" d="M93.17,170.87A72.6,72.6,0,0,1,61,98"/></svg>