<svg id="Layer_1" data-name="Layer 1" xmlns="http://www.w3.org/2000/svg" viewBox="0 0 265 265"><defs><style>.cls-1{fill:#f2f2f2;}.cls-1,.cls-2,.cls-3,.cls-4,.cls-5,.cls-7{stroke:#666;}.cls-1,.cls-2,.cls-3,.cls-4,.cls-5,.cls-6,.cls-7,.cls-8{stroke-miterlimit:10;}.cls-1,.cls-2,.cls-3,.cls-4,.cls-5,.cls-6,.cls-8{stroke-width:2px;}.cls-2,.cls-4{fill:#ccc;}.cls-2,.cls-5,.cls-6,.cls-7,.cls-8{stroke-linecap:round;}.cls-3,.cls-5,.cls-7,.cls-8{fill:none;}.cls-6{fill:#e6e6e6;stroke:#e6e6e6;}.cls-8{stroke:#ccc;}</style></defs><title>home_empty</title><circle class="cls-1" cx="133" cy="133" r="129"/><path class="cls-2" d="M136.24,174.84v-3.89a1.3,1.3,0,0,1,1.3-1.3h7.78a1.3,1.3,0,0,1,1.3,1.3v6.48"/><line class="cls-3" x1="193" y1="193" x2="193.29" y2="246.79"/><line class="cls-3" x1="71.42" y1="246.79" x2="71" y2="191"/><path class="cls-4" d="M55,194.26c26-5.46,51.27-10.91,77.3-16.37,25.5,6.21,51.81,12.43,77.3,18.64l-.32-1.56a3.88,3.88,0,0,0-2.89-3c-24.48-6-49.67-11.91-74.1-17.86-24.93,5.22-49.11,10.45-74,15.67a3.9,3.9,0,0,0-3,3Z"/><rect class="cls-4" x="94.16" y="221.51" width="40.84" height="22.04" rx="1" ry="1"/><line class="cls-5" x1="104.52" y1="236.77" x2="117.81" y2="229.47"/><line class="cls-5" x1="115.21" y1="236.51" x2="124.07" y2="231.65"/><path class="cls-6" d="M152.06,60.26a21.32,21.32,0,0,1,38.6-4.7"/><path class="cls-6" d="M152.06,60.38a17.08,17.08,0,0,0-3.17.12,16.55,16.55,0,0,0,2.21,33h37.35l.61,0a19,19,0,0,0,1.59-37.74"/><line class="cls-5" x1="89.57" y1="190.69" x2="120.68" y2="184.21"/><path class="cls-5" d="M168.71,232.26c0-1.44,1.07-4.54,0-6.91-.42-.94-1.59-2.49-4.73-2.65"/><path class="cls-5" d="M163.72,236.07h7.08a3.45,3.45,0,0,0,0-2.37,2,2,0,0,0-2.09-1.13"/><path class="cls-5" d="M159,232.26c0-1.44-1.07-4.54,0-6.91.42-.94,1.59-2.49,4.73-2.65v-2.19"/><path class="cls-5" d="M163.72,236.07h-6.51a3.45,3.45,0,0,1,0-2.37,2,2,0,0,1,2.09-1.13"/><path class="cls-7" d="M162.29,237a2.08,2.08,0,0,0,1.95,1.57,1.9,1.9,0,0,0,1.95-1.57"/><path class="cls-8" d="M157.62,54.14c1.13-1.44,5.56-6.75,12.85-7.56a17.47,17.47,0,0,1,6.31.46"/><path class="cls-8" d="M205.41,76.37a16.59,16.59,0,0,1-2.64,7.38A17.12,17.12,0,0,1,196.87,89"/><path class="cls-8" d="M163.7,60.73a9.78,9.78,0,0,1,6.82-6"/><path class="cls-6" d="M78.78,92.71a14.61,14.61,0,0,0-26.46-3.22"/><path class="cls-6" d="M78.78,92.83a11.65,11.65,0,0,1,1.76,0,11.34,11.34,0,0,1-1.1,22.63H53.83l-.42,0a13,13,0,0,1-1.09-25.86"/><path class="cls-8" d="M75,88.52a13.52,13.52,0,0,0-8.81-5.18,12,12,0,0,0-4.32.32"/><path class="cls-8" d="M42.22,103.75A11.37,11.37,0,0,0,44,108.8a11.74,11.74,0,0,0,4,3.62"/><path class="cls-8" d="M70.8,93a6.7,6.7,0,0,0-4.67-4.1"/><line class="cls-8" x1="208.84" y1="59.75" x2="230.88" y2="59.75"/><line class="cls-8" x1="217.92" y1="74.01" x2="229.59" y2="74.01"/><line class="cls-8" x1="210.14" y1="86.97" x2="239.96" y2="86.97"/><line class="cls-8" x1="92.16" y1="96.05" x2="105.13" y2="96.05"/><line class="cls-8" x1="97.35" y1="103.83" x2="105.13" y2="103.83"/><line class="cls-8" x1="92.16" y1="112.9" x2="111.61" y2="112.9"/></svg>