<?xml version="1.0" encoding="utf-8"?>
<!-- Generator: Adobe Illustrator 21.0.2, SVG Export Plug-In . SVG Version: 6.00 Build 0)  -->
<svg version="1.1" id="Layer_1" xmlns="http://www.w3.org/2000/svg" xmlns:xlink="http://www.w3.org/1999/xlink" x="0px" y="0px"
	 viewBox="0 0 29.3 30" style="enable-background:new 0 0 29.3 30;" xml:space="preserve">
<style type="text/css">
	.st0{fill:#C1C1C1;}
	.st1{fill:#E5E5E5;}
	.st2{fill:#FFFFFF;}
</style>
<g>
	<path id="path14519" class="st0" d="M83.7,10.7h-2.6c-0.3,0-0.5,0.1-0.6,0.3l-3.6,5.3l-1.5-5.1c-0.1-0.3-0.4-0.5-0.7-0.5H72
		c-0.3,0-0.5,0.3-0.4,0.6l2.9,8.5l-2.7,3.8c-0.2,0.3,0,0.7,0.4,0.7h2.6c0.2,0,0.5-0.1,0.6-0.3l8.7-12.6
		C84.3,11.1,84.1,10.7,83.7,10.7 M66.2,15.8c-0.3,1.5-1.4,2.5-2.9,2.5c-0.8,0-1.4-0.2-1.8-0.7c-0.4-0.5-0.5-1.1-0.4-1.8
		c0.2-1.5,1.4-2.5,2.9-2.5c0.7,0,1.3,0.2,1.7,0.7C66.1,14.4,66.3,15.1,66.2,15.8 M69.8,10.7h-2.6c-0.2,0-0.4,0.2-0.4,0.4l-0.1,0.7
		l-0.2-0.3c-0.6-0.8-1.8-1.1-3.1-1.1c-2.9,0-5.4,2.2-5.8,5.3c-0.3,1.5,0.1,3,1,4c0.8,0.9,1.9,1.3,3.3,1.3c2.3,0,3.6-1.5,3.6-1.5
		l-0.1,0.7c0,0.3,0.2,0.5,0.4,0.5h2.4c0.4,0,0.7-0.3,0.8-0.6l1.4-8.9C70.3,11,70.1,10.7,69.8,10.7 M54.1,10.8c-0.3,2-1.8,2-3.2,2H50
		l0.6-3.7c0-0.2,0.2-0.4,0.4-0.4h0.4c1,0,1.9,0,2.4,0.6C54.1,9.6,54.2,10.1,54.1,10.8 M53.5,5.7H48c-0.4,0-0.7,0.3-0.8,0.6l-2.2,14
		c0,0.3,0.2,0.5,0.4,0.5h2.6c0.4,0,0.7-0.3,0.7-0.6l0.6-3.8c0.1-0.4,0.4-0.6,0.7-0.6h1.7c3.6,0,5.7-1.7,6.2-5.2
		c0.2-1.5,0-2.7-0.7-3.5C56.7,6.1,55.3,5.7,53.5,5.7"/>
	<path id="path14523" class="st1" d="M111.8,6l-2.2,14.2c0,0.3,0.2,0.5,0.4,0.5h2.3c0.4,0,0.7-0.3,0.7-0.6l2.2-14
		c0-0.3-0.2-0.5-0.4-0.5h-2.5C112,5.7,111.8,5.8,111.8,6 M105.1,15.8c-0.3,1.5-1.4,2.5-2.9,2.5c-0.8,0-1.4-0.2-1.8-0.7
		c-0.4-0.5-0.5-1.1-0.4-1.8c0.2-1.5,1.4-2.5,2.9-2.5c0.7,0,1.3,0.2,1.7,0.7C105,14.4,105.2,15.1,105.1,15.8 M108.7,10.7h-2.6
		c-0.2,0-0.4,0.2-0.4,0.4l-0.1,0.7l-0.2-0.3c-0.6-0.8-1.8-1.1-3.1-1.1c-2.9,0-5.4,2.2-5.8,5.3c-0.3,1.5,0.1,3,1,4
		c0.8,0.9,1.9,1.3,3.3,1.3c2.3,0,3.6-1.5,3.6-1.5l-0.1,0.7c0,0.3,0.2,0.5,0.4,0.5h2.4c0.4,0,0.7-0.3,0.7-0.6l1.4-8.9
		C109.2,11,109,10.7,108.7,10.7 M93,10.8c-0.3,2-1.8,2-3.2,2H89l0.6-3.7c0-0.2,0.2-0.4,0.4-0.4h0.4c1,0,1.9,0,2.4,0.6
		C93.1,9.6,93.1,10.1,93,10.8 M92.4,5.7h-5.5c-0.4,0-0.7,0.3-0.7,0.6l-2.2,14c0,0.3,0.2,0.5,0.4,0.5h2.8c0.3,0,0.5-0.2,0.5-0.4
		l0.6-4c0.1-0.4,0.4-0.6,0.7-0.6h1.7c3.6,0,5.7-1.7,6.2-5.2c0.2-1.5,0-2.7-0.7-3.5C95.6,6.1,94.2,5.7,92.4,5.7"/>
</g>
<g>
	<rect x="3.3" y="16.6" class="st0" width="4.7" height="7.8"/>
	<path class="st0" d="M8.3,12.7c0,1.5-1.2,2.7-2.7,2.7S3,14.2,3,12.7c0-1.5,1.2-2.7,2.7-2.7C7.1,10.1,8.3,11.2,8.3,12.7z"/>
	<g>
		<g>
			<path class="st1" d="M16.8,2.2H0v25.5h16.8v0c3.7,0,6.6-1,8.7-2.7c2.5-2.1,3.8-5.5,3.8-10c0-2.2-0.3-4.1-1-5.8
				c-0.6-1.6-1.6-2.9-2.8-4C23.4,3.3,20.4,2.3,16.8,2.2L16.8,2.2z M16.5,3.9c3.3,0,6,0.9,7.9,2.6c2.1,1.9,3.2,4.8,3.2,8.5
				c0,7.5-3.6,11.1-11.1,11.1c-0.6,0-13.3,0-14.8,0c0-1.5,0-20.6,0-22.1C3.2,3.9,15.9,3.9,16.5,3.9z"/>
		</g>
	</g>
	<g>
		<path class="st0" d="M20.3,13.3c-0.1-0.2-0.3-0.8-0.4-1.2c-0.1,0.4-0.4,1-0.4,1.2C19.7,13.3,20.1,13.3,20.3,13.3z"/>
		<path class="st0" d="M11.2,14.3c0.1,0,0.2-0.1,0.3-0.2c0.1-0.1,0.1-0.2,0.2-0.4c0.1-0.2,0.1-0.4,0.1-0.8s0-0.6-0.1-0.7
			c-0.1-0.2-0.1-0.3-0.2-0.4c-0.1-0.1-0.2-0.1-0.4-0.2c-0.1,0-0.3,0-0.7,0c0,0-0.2,0-0.3,0v2.7c0.2,0,0.5,0,0.5,0
			C10.9,14.3,11.1,14.3,11.2,14.3z"/>
		<path class="st0" d="M22.8,15.3v-4.6h1.1c0,0,0,3.4,0,3.6c0.2,0,1.7,0,2.1,0C25.6,7.8,20.6,6,15.8,6h-5.7v4.6h0.6
			c0.4,0,0.7,0,0.9,0.1c0.3,0.1,0.5,0.2,0.7,0.4c0.2,0.2,0.3,0.5,0.4,0.8c0.1,0.3,0.2,0.7,0.2,1.1c0,0.4,0,0.7-0.1,1
			c-0.1,0.3-0.3,0.6-0.5,0.8c-0.2,0.2-0.4,0.3-0.7,0.4c-0.2,0.1-0.5,0.1-0.8,0.1h-0.7v9.1h5.7c4.9,0,10.2-1.5,10.2-9.1L22.8,15.3
			L22.8,15.3z M17.3,15.3h-3.6v-4.7h3.5v1c0,0-2.2,0-2.4,0c0,0.2,0,0.6,0,0.7c0.2,0,2.2,0,2.2,0v1c0,0-2,0-2.2,0c0,0.2,0,0.8,0,1
			c0.2,0,2.5,0,2.5,0V15.3L17.3,15.3z M21.1,15.3c0,0-0.3-0.9-0.4-1c-0.1,0-1.5,0-1.6,0c0,0.1-0.4,1-0.4,1h-1.2l1.8-4.7h1.1l1.9,4.7
			H21.1z"/>
	</g>
</g>
<g id="layer1">
	<g id="g10305">
		<path id="path2268" class="st1" d="M173.8,15c0,7-5.7,12.7-12.7,12.7c-7,0-12.7-5.7-12.7-12.7c0,0,0,0,0,0c0-7,5.7-12.7,12.7-12.7
			C168,2.3,173.7,8,173.8,15C173.8,15,173.8,15,173.8,15z"/>
		<path id="path1350" class="st0" d="M143.8,2.3c-7,0-12.7,5.7-12.7,12.7c0,7,5.7,12.7,12.7,12.7c3.3,0,6.3-1.3,8.6-3.3l0,0h0
			c0.5-0.4,0.9-0.9,1.3-1.4h-2.6c-0.3-0.4-0.7-0.9-0.9-1.3h4.5c0.3-0.4,0.5-0.9,0.7-1.4h-6c-0.2-0.4-0.4-0.9-0.5-1.3h7.1
			c0.4-1.3,0.7-2.6,0.7-4c0-0.9-0.1-1.8-0.3-2.7h-7.8c0.1-0.5,0.2-0.9,0.4-1.3h7.1c-0.2-0.5-0.3-0.9-0.6-1.4h-6
			c0.2-0.5,0.5-0.9,0.7-1.3h4.5c-0.3-0.5-0.6-0.9-1-1.4h-2.5c0.4-0.5,0.8-0.9,1.3-1.3C150.2,3.5,147.2,2.3,143.8,2.3
			C143.9,2.3,143.9,2.3,143.8,2.3z"/>
	</g>
	<g id="g16480">
		<g id="g10289">
			<path id="path4157" class="st2" d="M148.5,18.2l0.2-1.2c-0.1,0-0.2,0-0.3,0c-0.5,0-0.5-0.3-0.5-0.4l0.4-2.4h0.7l0.2-1.3h-0.7
				l0.1-0.8h-1.4c0,0-0.8,4.5-0.8,5c0,0.8,0.4,1.2,1.1,1.1C148,18.4,148.4,18.3,148.5,18.2z"/>
			<path id="path4155" class="st2" d="M148.9,16c0,1.9,1.3,2.4,2.3,2.4c1,0,1.4-0.2,1.4-0.2l0.2-1.3c0,0-0.8,0.3-1.4,0.3
				c-1.5,0-1.2-1.1-1.2-1.1h2.8c0,0,0.2-0.9,0.2-1.2c0-0.9-0.4-2-1.9-2C149.9,12.9,148.9,14.4,148.9,16z M151.3,14.1
				c0.8,0,0.6,0.9,0.6,0.9h-1.5C150.4,15,150.6,14.1,151.3,14.1z"/>
			<path id="path4151" class="st2" d="M159.9,18.2l0.2-1.5c0,0-0.7,0.3-1.1,0.3c-1,0-1.3-0.7-1.3-1.5c0-1.6,0.8-2.5,1.7-2.5
				c0.7,0,1.2,0.4,1.2,0.4l0.2-1.4c0,0-0.8-0.3-1.5-0.3c-1.6,0-3.1,1.4-3.1,3.9c0,1.7,0.8,2.8,2.4,2.8
				C159.2,18.4,159.9,18.2,159.9,18.2z"/>
			<path id="path4149" class="st2" d="M141.1,12.9c-0.9,0-1.6,0.3-1.6,0.3l-0.2,1.2c0,0,0.6-0.2,1.5-0.2c0.5,0,0.9,0.1,0.9,0.5
				c0,0.3,0,0.3,0,0.3s-0.4,0-0.6,0c-1.2,0-2.4,0.5-2.4,2c0,1.2,0.8,1.5,1.3,1.5c1,0,1.4-0.6,1.4-0.6l0,0.5h1.2l0.5-3.7
				C142.9,13,141.5,12.9,141.1,12.9z M141.3,16c0,0.2-0.1,1.3-1,1.3c-0.4,0-0.5-0.3-0.5-0.5c0-0.4,0.2-0.8,1.2-0.8
				C141.3,15.9,141.3,16,141.3,16z"/>
			<path id="path4145" class="st2" d="M144.2,18.4c0.3,0,2.1,0.1,2.1-1.7c0-1.7-1.6-1.4-1.6-2c0-0.3,0.3-0.4,0.7-0.4
				c0.2,0,0.9,0.1,0.9,0.1l0.2-1.2c0,0-0.5-0.1-1.3-0.1c-1,0-2,0.4-2,1.8c0,1.6,1.7,1.4,1.7,2.1c0,0.4-0.5,0.5-0.8,0.5
				c-0.6,0-1.2-0.2-1.2-0.2l-0.2,1.2C142.7,18.2,143,18.4,144.2,18.4z"/>
			<path id="path4139" class="st2" d="M171.1,11.9l-0.3,1.8c0,0-0.5-0.7-1.3-0.7c-1.2,0-2.3,1.5-2.3,3.2c0,1.1,0.6,2.2,1.7,2.2
				c0.8,0,1.3-0.6,1.3-0.6l-0.1,0.5h1.3l1-6.4L171.1,11.9z M170.5,15.4c0,0.7-0.4,1.7-1.1,1.7c-0.5,0-0.7-0.4-0.7-1.1
				c0-1.1,0.5-1.7,1.1-1.7C170.3,14.3,170.5,14.6,170.5,15.4z"/>
			<path id="path4133" class="st2" d="M133.7,18.3l0.8-4.9l0.1,4.9h0.9l1.7-4.9l-0.8,4.9h1.4l1.1-6.5h-2.1l-1.3,4l-0.1-4h-2
				l-1.1,6.5H133.7z"/>
			<path id="path4131" class="st2" d="M154.6,18.3c0.4-2.2,0.5-4.1,1.4-3.7c0.2-0.9,0.3-1.2,0.5-1.6c0,0-0.1,0-0.3,0
				c-0.6,0-1.1,0.8-1.1,0.8l0.1-0.8h-1.3l-0.8,5.3L154.6,18.3z"/>
			<g id="use8523" transform="translate(847.0062,0)">
				<path id="path4149_1_" class="st2" d="M-684,12.9c-0.9,0-1.6,0.3-1.6,0.3l-0.2,1.2c0,0,0.6-0.2,1.5-0.2c0.5,0,0.9,0.1,0.9,0.5
					c0,0.3,0,0.3,0,0.3s-0.4,0-0.6,0c-1.2,0-2.4,0.5-2.4,2c0,1.2,0.8,1.5,1.3,1.5c1,0,1.4-0.6,1.4-0.6l0,0.5h1.2l0.5-3.7
					C-682.1,13-683.5,12.9-684,12.9z M-683.7,16c0,0.2-0.1,1.3-1,1.3c-0.4,0-0.5-0.3-0.5-0.5c0-0.4,0.2-0.8,1.2-0.8
					C-683.7,15.9-683.7,16-683.7,16z"/>
			</g>
			<g id="use8525" transform="translate(442.2857,0)">
				<path id="path4131_1_" class="st2" d="M-276.3,18.3c0.4-2.2,0.5-4.1,1.4-3.7c0.2-0.9,0.3-1.2,0.5-1.6c0,0-0.1,0-0.3,0
					c-0.6,0-1.1,0.8-1.1,0.8l0.1-0.8h-1.3l-0.8,5.3L-276.3,18.3z"/>
			</g>
		</g>
	</g>
</g>
<g>
	<path class="st0" d="M208.5,24.4c2.6-2.3,4.2-5.7,4.2-9.4s-1.6-7.1-4.2-9.4c-2.2-2-5.2-3.3-8.5-3.3c-7,0-12.6,5.7-12.6,12.7
		c0,7,5.7,12.7,12.6,12.7C203.3,27.7,206.3,26.5,208.5,24.4L208.5,24.4z"/>
	<path class="st1" d="M217,2.3c-3.3,0-6.2,1.2-8.5,3.3c-0.5,0.4-0.9,0.9-1.3,1.3h2.6c0.4,0.4,0.7,0.9,1,1.3h-4.5
		c-0.3,0.4-0.5,0.9-0.7,1.3h5.9c0.2,0.4,0.4,0.9,0.5,1.3h-7c-0.1,0.4-0.3,0.9-0.4,1.3h7.7c0.2,0.9,0.3,1.8,0.3,2.7
		c0,1.4-0.2,2.8-0.7,4h-7c0.2,0.5,0.3,0.9,0.5,1.3h5.9c-0.2,0.5-0.5,0.9-0.7,1.3h-4.5c0.3,0.5,0.6,0.9,1,1.3h2.6
		c-0.4,0.5-0.8,0.9-1.3,1.3c2.2,2,5.2,3.3,8.5,3.3c7,0,12.6-5.7,12.6-12.7C229.6,8,224,2.3,217,2.3L217,2.3z"/>
	<path class="st2" d="M225.3,17.8c0-0.2,0.2-0.4,0.4-0.4c0.2,0,0.4,0.2,0.4,0.4c0,0.2-0.2,0.4-0.4,0.4S225.3,18,225.3,17.8
		L225.3,17.8z M225.7,18.1c0.2,0,0.3-0.1,0.3-0.3c0-0.2-0.1-0.3-0.3-0.3c-0.2,0-0.3,0.1-0.3,0.3S225.5,18.1,225.7,18.1L225.7,18.1z
		 M225.6,17.9L225.6,17.9l-0.1-0.4h0.2c0,0,0.1,0,0.1,0c0,0,0,0.1,0,0.1c0,0,0,0.1-0.1,0.1l0.1,0.2h-0.1l-0.1-0.1h-0.1L225.6,17.9
		l0-0.2h0c0,0,0,0,0.1,0c0,0,0,0,0,0c0,0,0,0,0,0c0,0,0,0-0.1,0h0v0.1L225.6,17.9L225.6,17.9z"/>
	<polygon class="st2" points="198.4,18.2 196.9,18.2 197.8,13.2 195.7,18.2 194.2,18.2 194,13.2 193,18.2 191.6,18.2 192.8,11.7 
		195.3,11.7 195.4,15.7 197.1,11.7 199.7,11.7 	"/>
	<path class="st2" d="M216,18.1c-0.4,0.1-0.8,0.2-1.1,0.2c-0.8,0-1.2-0.4-1.2-1.2c0-0.1,0-0.3,0-0.5l0.1-0.5l0.1-0.4l0.7-4h1.6
		l-0.2,1.2h0.8l-0.2,1.3h-0.8l-0.4,2.2c0,0.1,0,0.2,0,0.2c0,0.3,0.2,0.4,0.5,0.4c0.2,0,0.3,0,0.4,0L216,18.1L216,18.1z"/>
	<path class="st2" d="M220.6,13c-0.1-0.1-0.2-0.1-0.2-0.1c-0.1,0-0.1,0-0.1,0c0,0-0.1,0-0.2,0c-0.5,0-0.9,0.2-1.4,0.9l0.1-0.8h-1.4
		l-1,5.2h1.6c0.6-3.2,0.8-3.8,1.6-3.8c0.1,0,0.1,0,0.2,0l0.2,0L220.6,13L220.6,13z"/>
	<path class="st2" d="M209.8,14.6c0,0.7,0.4,1.1,1.2,1.5c0.6,0.3,0.7,0.3,0.7,0.6c0,0.3-0.3,0.5-0.9,0.5c-0.5,0-0.9-0.1-1.4-0.2
		l-0.2,1.2l0.1,0l0.3,0.1c0.1,0,0.2,0,0.4,0c0.4,0,0.7,0,0.9,0c1.7,0,2.5-0.6,2.5-1.8c0-0.7-0.3-1.1-1.1-1.5
		c-0.7-0.3-0.7-0.3-0.7-0.6c0-0.3,0.3-0.4,0.8-0.4c0.3,0,0.7,0,1.1,0.1l0.2-1.2c-0.4-0.1-1-0.1-1.4-0.1
		C210.4,12.8,209.8,13.6,209.8,14.6L209.8,14.6z"/>
	<path class="st2" d="M203.6,18.2h-1.3l0-0.5c-0.4,0.4-0.9,0.6-1.6,0.6c-0.9,0-1.4-0.6-1.4-1.4c0-1.3,1-2,2.8-2c0.2,0,0.4,0,0.6,0
		c0-0.2,0.1-0.2,0.1-0.3c0-0.3-0.3-0.5-1-0.5c-0.4,0-1,0.1-1.3,0.1l-0.2,0.1l-0.1,0l0.2-1.2c0.8-0.2,1.3-0.3,1.9-0.3
		c1.4,0,2.1,0.5,2.1,1.5c0,0.3,0,0.5-0.1,1l-0.3,1.9l-0.1,0.3l0,0.3l0,0.2L203.6,18.2L203.6,18.2z M202.4,15.8c-0.2,0-0.2,0-0.4,0
		c-0.9,0-1.3,0.3-1.3,0.8c0,0.3,0.2,0.5,0.6,0.5C201.9,17.1,202.4,16.6,202.4,15.8L202.4,15.8z"/>
	<path class="st2" d="M208.7,18.1c-0.5,0.1-1.1,0.2-1.6,0.2c-1.8,0-2.7-0.8-2.7-2.4c0-1.8,1.2-3.1,2.7-3.1c1.3,0,2.1,0.7,2.1,1.9
		c0,0.4-0.1,0.8-0.2,1.3H206c0,0.1,0,0.1,0,0.2c0,0.6,0.5,0.9,1.4,0.9c0.6,0,1.1-0.1,1.6-0.3L208.7,18.1L208.7,18.1z M207.9,14.9
		c0-0.1,0-0.2,0-0.3c0-0.4-0.3-0.7-0.7-0.7c-0.5,0-0.9,0.3-1,0.9L207.9,14.9L207.9,14.9z"/>
	<path class="st2" d="M225.5,15.8c-0.2,1.7-1.4,2.5-3.1,2.5c-1.8,0-2.5-1.1-2.5-2.4c0-1.9,1.2-3.1,3.1-3.1c1.6,0,2.5,1,2.5,2.4
		C225.5,15.5,225.5,15.5,225.5,15.8L225.5,15.8z M223.9,15.1c0-0.5-0.2-1.1-0.9-1.1c-0.8,0-1.3,1-1.3,1.8c0,0.7,0.3,1.2,0.9,1.2
		c0.3,0,1.1-0.5,1.2-1.3C223.9,15.6,223.9,15.3,223.9,15.1L223.9,15.1z"/>
</g>
<g>
	<g>
		<polygon class="st1" points="261,23.8 264,6.3 268.8,6.3 265.8,23.8 		"/>
		<path class="st1" d="M283.2,6.7c-0.9-0.4-2.4-0.7-4.3-0.7c-4.7,0-8.1,2.4-8.1,5.8c0,2.5,2.4,3.9,4.2,4.8c1.9,0.9,2.5,1.4,2.5,2.2
			c0,1.2-1.5,1.7-2.9,1.7c-1.9,0-2.9-0.3-4.5-0.9l-0.6-0.3l-0.7,3.9c1.1,0.5,3.2,0.9,5.3,0.9c5,0,8.3-2.4,8.3-6c0-2-1.3-3.5-4-4.8
			c-1.7-0.8-2.7-1.4-2.7-2.2c0-0.7,0.9-1.5,2.7-1.5c1.6,0,2.7,0.3,3.6,0.7l0.4,0.2L283.2,6.7"/>
		<path class="st1" d="M295.4,6.3h-3.7c-1.1,0-2,0.3-2.5,1.5l-7.1,16.1h5c0,0,0.8-2.2,1-2.6c0.5,0,5.4,0,6.1,0
			c0.1,0.6,0.6,2.6,0.6,2.6h4.4L295.4,6.3 M289.5,17.6c0.4-1,1.9-4.9,1.9-4.9c0,0,0.4-1,0.6-1.7l0.3,1.5c0,0,0.9,4.2,1.1,5.1H289.5
			L289.5,17.6z"/>
		<path class="st1" d="M257,6.3l-4.7,12l-0.5-2.4c-0.9-2.8-3.6-5.8-6.6-7.4l4.3,15.3l5.1,0l7.5-17.5L257,6.3"/>
		<path class="st0" d="M248,6.3h-7.7l-0.1,0.4c6,1.5,10,5,11.6,9.2l-1.7-8.1C249.9,6.6,249.1,6.3,248,6.3"/>
	</g>
</g>
<g>
	<path id="Fill-1" class="st1" d="M385.8,22.2c0.1,0,0.1,0,0.2,0c0.6,0,1.3,0,1.9,0c0.1,0,0.2,0.1,0.2,0.1c0.9,1.1,2.4,1,3-0.4
		c0.2-0.5,0.3-1.1,0.2-1.7c-0.1,0.1-0.1,0.1-0.1,0.1c-0.6,0.8-1.4,1.1-2.3,1.1c-1.5-0.1-2.5-1-3-2.4c-0.6-1.7-0.5-3.4,0.2-5
		c0.5-1.1,1.4-1.6,2.5-1.8c1.1-0.1,2.2,0.1,3.2,0.6c0.9,0.5,1.5,1.3,1.6,2.3c0.1,0.4,0.1,0.8,0.1,1.2c0,1.6,0,3.2,0,4.8
		c0,0.5-0.1,1-0.2,1.5c-0.2,0.7-0.6,1.2-1.2,1.5c-1.3,0.8-2.8,1-4.2,0.5C386.7,24.3,386.1,23.4,385.8,22.2L385.8,22.2z M387.7,16.9
		c0,0.4,0.1,0.7,0.1,1.1c0.2,0.9,0.6,1.5,1.6,1.5c0.8,0,1.5-0.4,1.8-1.2c0.1-0.3,0.2-0.7,0.2-1c0.1-0.8,0-1.6-0.4-2.4
		c-0.3-0.5-0.7-0.8-1.3-0.8c-0.8,0-1.4,0.2-1.7,1.1C387.8,15.8,387.7,16.3,387.7,16.9L387.7,16.9z"/>
	<path id="Fill-2" class="st1" d="M342.4,13.5c0-0.1,0.1-0.1,0.1-0.2c0.6-0.8,1.4-1.1,2.4-1.1c1.5,0.1,2.4,1,2.9,2.3
		c0.6,1.6,0.6,3.2,0,4.8c-0.4,1.2-1.3,1.8-2.5,2c-1.2,0.2-2.3,0-3.4-0.5c-1-0.5-1.5-1.3-1.6-2.4c0-0.4-0.1-0.7-0.1-1.1
		c0-2.4,0-4.8,0-7.2c0-0.3,0-0.3,0.3-0.3c0.3,0,0.6,0,0.8,0c0.6,0,1,0.5,1,1.1c0,0.8,0,1.6,0,2.4C342.3,13.3,342.3,13.4,342.4,13.5
		C342.3,13.5,342.3,13.5,342.4,13.5L342.4,13.5z M346,16.8c0-0.3,0-0.6-0.1-0.9c0-0.2-0.1-0.4-0.2-0.6c-0.3-0.8-0.9-1.2-1.6-1.2
		c-0.8,0-1.4,0.5-1.6,1.3c-0.3,0.9-0.2,1.8,0,2.7c0.2,0.8,0.8,1.2,1.6,1.3c0.7,0,1.3-0.4,1.6-1.1C345.9,17.9,346,17.3,346,16.8
		L346,16.8z"/>
	<path id="Fill-3" class="st1" d="M373.5,21.2c-0.2,0-0.3,0-0.4,0c-0.7,0-1.4,0-2,0c-0.2,0-0.2-0.1-0.3-0.2
		c-0.5-0.9-0.9-1.8-1.4-2.7c-0.1-0.2-0.3-0.5-0.4-0.7c-0.1-0.2-0.3-0.3-0.5-0.2c-0.2,0.1-0.3,0.3-0.3,0.5c0,1,0,1.9,0,2.9
		c0,0.3,0,0.3-0.3,0.3c-0.6,0-1.1,0-1.7,0c-0.1,0-0.2,0-0.2,0V9.8c0.5,0,1,0,1.5,0.1c0.4,0.1,0.7,0.6,0.7,1c0,0.7,0,1.3,0,2
		c0,0.8,0,1.6,0,2.4v0.3c0,0,0,0,0.1,0c0.1-0.1,0.1-0.1,0.2-0.2c0.8-1,1.6-1.9,2.4-2.9c0.1-0.1,0.2-0.2,0.3-0.2c0.8,0,1.6,0,2.4,0
		c-0.1,0.1-0.1,0.1-0.2,0.2c-0.9,1-1.8,2-2.7,3c-0.1,0.2-0.2,0.3,0,0.4c0.9,1.7,1.9,3.3,2.8,5C373.4,21.1,373.4,21.1,373.5,21.2"/>
	<path id="Fill-4" class="st1" d="M334.7,10.2h-5.5c-0.1,1.2,0.6,2.2,1.9,2.1c0.5,0,0.9-0.2,1.2-0.6c0.1-0.2,0.3-0.2,0.5-0.3
		c0.1,0,0.2,0,0.3,0c0.5,0,1,0,1.5,0c-0.2,0.7-0.4,1.2-0.9,1.7c-0.7,0.7-1.5,1.1-2.5,1.2c-0.7,0.1-1.4,0-2.1-0.3
		c-1-0.4-1.6-1.2-1.9-2.3c-0.4-1.4-0.4-2.8,0-4.2c0.5-1.5,1.6-2.4,3.1-2.5c0.8-0.1,1.7,0,2.4,0.4c1.1,0.6,1.6,1.5,1.8,2.7
		C334.7,8.8,334.7,9.5,334.7,10.2L334.7,10.2z M329.1,8.7h3.2c0.1-1-0.6-1.8-1.6-1.8C329.8,6.9,329.1,7.6,329.1,8.7L329.1,8.7z"/>
	<path id="Fill-5" class="st1" d="M359.5,17.4c-0.1,0.8,0.3,1.9,1.3,2c0.7,0.1,1.3,0,1.8-0.6c0.1-0.2,0.3-0.3,0.5-0.3
		c0.6,0,1.2,0,1.8,0c0,0.1-0.1,0.2-0.1,0.3c-0.5,1.4-1.7,2.4-3.2,2.5c-0.6,0-1.2,0-1.8-0.1c-1.1-0.3-1.9-1.1-2.3-2.2
		c-0.5-1.5-0.6-3,0-4.6c0.5-1.4,1.5-2.1,3-2.3c0.7-0.1,1.4,0,2,0.2c1.3,0.5,2,1.5,2.3,2.8c0.1,0.6,0.1,1.3,0.2,1.9
		c0,0.2-0.1,0.3-0.3,0.3c-1.7,0-3.3,0-5,0C359.7,17.4,359.6,17.4,359.5,17.4L359.5,17.4z M362.8,15.9c-0.1-0.6-0.2-1.2-0.7-1.5
		c-0.5-0.4-1.1-0.4-1.7-0.1c-0.6,0.3-0.8,0.8-0.9,1.4c0,0.2,0,0.2,0.2,0.2c0.9,0,1.9,0,2.8,0C362.6,15.9,362.7,15.9,362.8,15.9
		L362.8,15.9z"/>
	<path id="Fill-6" class="st1" d="M313.3,14.2c-1.1-0.1-2.1-0.3-2.9-1.2c-0.5-0.5-0.7-1.1-0.9-1.8c-0.3-1.3-0.3-2.6,0.1-3.8
		c0.5-1.4,1.6-2.3,3-2.4c0.7-0.1,1.4,0,2.1,0.2c1,0.4,1.7,1.2,2,2.2c0.5,1.5,0.5,3,0,4.5c-0.5,1.3-1.5,2.1-2.8,2.3
		C313.8,14.2,313.6,14.2,313.3,14.2L313.3,14.2z M315.1,9.6c-0.1-0.4-0.1-0.9-0.2-1.3c-0.1-0.6-0.5-1-1-1.2c-0.6-0.3-1.8-0.1-2.1,1
		c-0.4,1.1-0.3,2.3,0.1,3.4c0.2,0.6,1,1,1.6,0.9c0.7-0.1,1.1-0.6,1.3-1.3C315,10.6,315,10.1,315.1,9.6L315.1,9.6z"/>
	<path id="Fill-7" class="st1" d="M356.6,16.8c0,0.8-0.1,1.5-0.4,2.3c-0.5,1.3-1.4,2-2.7,2.2c-0.8,0.1-1.6,0.1-2.3-0.2
		c-1.1-0.4-1.8-1.1-2.1-2.3c-0.4-1.5-0.5-3,0.1-4.4c0.5-1.4,1.5-2.1,2.9-2.2c0.8-0.1,1.5,0,2.2,0.3c1.1,0.5,1.8,1.4,2.1,2.5
		C356.5,15.6,356.6,16.2,356.6,16.8C356.7,16.8,356.6,16.8,356.6,16.8L356.6,16.8z M354.5,16.8c-0.1-0.4-0.1-0.8-0.2-1.2
		c-0.2-0.6-0.5-1.1-1.1-1.3c-0.7-0.3-1.8,0-2.1,1.1c-0.3,1.1-0.2,2.2,0.1,3.2c0.3,0.8,1.3,1.2,1.9,0.9c0.6-0.2,0.9-0.7,1.1-1.3
		C354.4,17.7,354.4,17.2,354.5,16.8L354.5,16.8z"/>
	<path id="Fill-8" class="st1" d="M385,21.2c-0.5,0-0.9,0-1.3,0c-0.5-0.1-0.8-0.5-0.8-1.1c0-1.5,0-3,0-4.5c0-0.7-0.2-1.2-0.8-1.4
		c-0.6-0.3-1.2-0.2-1.8,0.3c-0.4,0.3-0.4,0.8-0.4,1.2c0,1.7,0,3.5,0,5.2c0,0.3,0,0.3-0.3,0.3c-0.5,0-1.1,0-1.6,0h-0.3V21
		c0-1.7,0-3.3,0-5c0-0.6,0.1-1.2,0.2-1.7c0.2-0.6,0.5-1,1-1.3c1.5-0.9,2.9-1,4.5-0.3c0.8,0.4,1.3,1.1,1.5,2c0.1,0.4,0.1,0.8,0.1,1.2
		c0,1.7,0,3.5,0,5.2C385,21.1,385,21.2,385,21.2"/>
	<path id="Fill-9" class="st1" d="M318,5.2h2.3c0.6,2,1.1,4.1,1.7,6.2c0-0.1,0.1-0.2,0.1-0.2c0.5-1.7,0.9-3.3,1.4-5
		c0.2-0.7,0.5-1,1.2-1c0.3,0,0.6,0,0.8,0h0.7c-0.1,0.3-0.2,0.6-0.3,0.9c-0.9,2.6-1.7,5.1-2.6,7.7c-0.1,0.2-0.1,0.2-0.3,0.2
		c-0.6,0-1.2,0-1.9,0c-0.1,0-0.2,0-0.2-0.1C320,11.1,319,8.2,318,5.2C318,5.3,318,5.3,318,5.2"/>
	<path id="Fill-10" class="st1" d="M403.1,16.7c-0.1,0.1-0.1,0.1-0.1,0.2c-1.2,1.3-2.4,2.5-3.6,3.7c-0.1,0.1-0.2,0.1-0.3,0.1
		c-1.1,0-2.2,0-3.3,0c0,0-0.1,0-0.1,0c1.3-1.4,2.6-2.7,3.9-4c-1.3-1.3-2.6-2.7-3.9-4c0.1,0,0.1,0,0.2,0c1.1,0,2.2,0,3.2,0
		c0.1,0,0.2,0,0.3,0.1C400.6,14.1,401.9,15.4,403.1,16.7"/>
	<path id="Fill-11" class="st1" d="M401.9,12.7c1.2,0,2.3,0,3.5,0c0.1,0,0.1,0,0.2,0.1c1.3,1.3,2.5,2.6,3.8,3.9c0,0,0,0,0,0
		c-0.2,0.2-0.3,0.3-0.5,0.5c-1.1,1.1-2.2,2.3-3.3,3.4c0,0-0.1,0.1-0.2,0.1c-1.1,0-2.3,0-3.5,0c1.3-1.4,2.6-2.7,3.9-4
		C404.5,15.4,403.2,14,401.9,12.7"/>
	<path id="Fill-12" class="st1" d="M336,14.1V5.3c0.5,0,0.9,0,1.4,0c0.2,0,0.4,0.2,0.5,0.3c0.1,0.1,0.2,0.1,0.3,0.1
		c0.9-0.4,1.8-0.5,2.8-0.4v2.3c-0.1,0-0.1,0-0.2,0c-0.3,0-0.6,0-0.9,0c-1,0-1.6,0.6-1.6,1.7c0,0.6,0,1.1,0,1.7c0,1,0,1.9,0,2.9
		c0,0.2,0,0.2-0.2,0.2C337.3,14.1,336.7,14.1,336,14.1"/>
	<path id="Fill-13" class="st1" d="M376.7,21.2c-0.5,0-0.9,0-1.4,0c-0.2,0-0.5,0-0.7,0c-0.1,0-0.2,0-0.2-0.2c0-0.1,0-0.1,0-0.2
		c0-2.7,0-5.4,0-8.2c0-0.3,0-0.3,0.3-0.3c0.3,0,0.6,0,0.8,0c0.6,0,1.1,0.5,1.1,1.1c0,2.2,0,4.4,0,6.6L376.7,21.2"/>
	<path id="Fill-14" class="st1" d="M375.6,11.6c-0.3,0-0.6,0-0.9,0c-0.2,0-0.2,0-0.2-0.2c0-0.5,0-0.9,0-1.4c0-0.2,0-0.2,0.2-0.2
		c0.4,0,0.8,0,1.2,0c0.5,0.1,0.8,0.5,0.8,1.1c0,0.2,0.1,0.5,0,0.6c-0.1,0.1-0.4,0.1-0.6,0.1C375.9,11.6,375.7,11.6,375.6,11.6"/>
</g>
<g>
	<path class="st1" d="M427.8,0.9c3.4,0,8.9,2.2,12.6,4.2c4,2.2,9.7,6.7,9.7,9.9c0,3.3-5.8,7.7-9.7,9.9c-3.5,1.9-8.9,4.2-12.4,4.2
		c-0.9,0-1.7-0.2-2.3-0.5c-2.8-1.5-4.1-8.1-4.1-13.6c0-2.8,0.4-5.7,1-8.1c0.7-2.9,1.8-4.8,3.1-5.5C426.2,1.1,426.9,0.9,427.8,0.9"/>
	<path class="st1" d="M449.1,15.1c0-2.4-4.5-6.5-9.2-9.1c-5.5-3-11.7-4.8-13.7-3.7c-2.3,1.3-3.6,7.7-3.6,12.8
		c0,5.1,1.2,11.4,3.6,12.8c2.2,1.2,8.1-0.6,13.7-3.7C444.7,21.5,449.1,17.6,449.1,15.1"/>
	<path class="st2" d="M442.9,17.4C442.9,17.4,442.9,17.4,442.9,17.4l0-2.4c0-0.5-0.2-0.7-0.6-0.7c-0.1,0-0.3,0.1-0.5,0.2
		c-0.2,0.1-0.3,0.2-0.4,0.2c0,0,0,0,0,0.1v2.7c0,0,0,0,0,0h-1.1c0,0,0,0,0,0v-3.8c0-0.1,0.1-0.1,0.1-0.1h1c0,0,0,0,0,0v0.3
		c0,0,0,0,0,0c0,0,0,0,0,0l0,0c0.1-0.1,0.3-0.2,0.4-0.2c0.3-0.1,0.5-0.2,0.8-0.2c0.9,0,1.3,0.5,1.3,1.4v2.5c0,0,0,0,0,0L442.9,17.4"
		/>
	<path class="st2" d="M444.9,17.4C444.8,17.4,444.8,17.4,444.9,17.4l0-5.8c0,0,0,0,0,0c0.1,0,0.6,0.4,0.8,0.6
		c0.1,0.2,0.2,0.4,0.2,0.6v4.7c0,0,0,0,0,0H444.9"/>
	<path class="st2" d="M433.2,15.5c0,1.4-0.9,2-2,2c-1.1,0-2-0.7-2-2c0-1.4,0.9-2,2-2C432.3,13.4,433.2,14.1,433.2,15.5 M432.1,15.5
		c0-0.8-0.4-1.1-0.9-1.1c-0.5,0-0.9,0.3-0.9,1.1c0,0.7,0.4,1.1,0.9,1.1C431.7,16.6,432.1,16.2,432.1,15.5z"/>
	<path class="st2" d="M438.6,12.4C438.6,12.4,438.6,12.4,438.6,12.4c-0.1,0-0.7,0.3-0.9,0.5c-0.1,0.2-0.2,0.4-0.2,0.6v2.5
		c0,1.1,0.6,1.4,1.3,1.4c0.4,0,0.7-0.1,0.8-0.1c0,0,0.1-0.1,0.1-0.1v-0.7c0,0,0,0,0,0c0,0-0.3,0.1-0.5,0.1c-0.4,0-0.6-0.2-0.6-0.7
		v-1.4c0,0,0,0,0,0h0.9c0,0,0,0,0,0h0l0-0.7c0-0.1-0.1-0.1-0.1-0.1h-0.9c0,0,0,0,0,0L438.6,12.4"/>
	<path class="st2" d="M424.9,13.6c0-0.1,0.1-0.1,0.1-0.1h1.5c1.5,0,2.2,0.9,2.2,2s-0.9,1.9-2.3,1.9H426c0,0,0,0,0,0v1.8c0,0,0,0,0,0
		c-0.1,0-0.7-0.4-0.9-0.6c-0.1-0.2-0.2-0.4-0.2-0.6L424.9,13.6 M427.6,15.5c0-0.5-0.3-0.9-1.1-0.9H426c0,0,0,0,0,0v1.8c0,0,0,0,0,0
		h0.5C427.5,16.4,427.6,15.7,427.6,15.5z"/>
	<path class="st2" d="M436.4,15.3c-0.2-0.2-0.5-0.2-0.8-0.3c0,0-0.2-0.1-0.3-0.1c-0.3-0.1-0.6-0.1-0.6-0.4c0-0.2,0.2-0.3,0.5-0.3
		c0.4,0,0.8,0.1,1.4,0.3c0,0,0.1,0,0.1,0l0-0.8c0-0.1,0-0.1-0.1-0.1c-0.2-0.1-0.7-0.2-1.2-0.2c-0.5,0-1,0.1-1.3,0.3
		c-0.3,0.2-0.5,0.5-0.5,0.9c0,0.9,0.7,1,1.4,1.2c0.1,0,0.1,0,0.1,0c0.3,0.1,0.6,0.1,0.6,0.4c0,0.1,0,0.1-0.1,0.2
		c-0.1,0.1-0.2,0.1-0.5,0.1c-0.4,0-1.2-0.2-1.5-0.3c0,0,0,0,0,0c0,0,0,0,0,0v0.8c0,0.1,0,0.1,0.1,0.1c0,0,0.7,0.2,1.4,0.2
		c1.2,0,1.8-0.5,1.8-1.3C436.9,15.8,436.7,15.5,436.4,15.3"/>
	<path class="st2" d="M429.5,12.5c-0.1,0-0.1,0-0.1-0.2v-0.4c0-0.1,0.1-0.2,0.2-0.2h3.4c0.1,0,0.2,0.1,0.2,0.2v0.4
		c0,0.1,0,0.2-0.1,0.2H429.5 M432.5,11.3C432.5,11.3,432.4,11.3,432.5,11.3c-0.1,0-0.1-0.1-0.1-0.1c0.1-0.3,0.5-1.4,0.5-1.4
		c0-0.1,0-0.2-0.1-0.2l-0.2-0.1c0,0,0,0,0,0c0,0-0.1,0-0.1,0c-0.1,0.2-0.1,0.3-0.2,0.5c0,0,0,0.1-0.1,0.1h-0.4c0,0,0,0-0.1,0
		c0,0,0,0,0-0.1c0.1-0.3,0.2-0.6,0.3-0.9c0-0.1,0.1-0.1,0.2-0.1c0,0,0,0,0.1,0l0,0c0.1,0,0.3,0.1,0.4,0.1c0.1,0,0.2,0.1,0.4,0.1
		c0.4,0.1,0.4,0.4,0.3,0.7c0,0.2-0.3,0.8-0.4,1.2c0,0.1-0.1,0.1-0.1,0.2c0,0-0.1,0.1-0.1,0.1L432.5,11.3z M431,11.3
		C430.9,11.3,430.9,11.2,431,11.3c-0.1-0.1-0.1-2.1-0.1-2.4c0,0,0-0.1,0-0.1c0,0,0,0,0.1,0c0,0,0.1,0,0.3,0c0.1,0,0.2,0,0.3,0
		c0,0,0,0,0.1,0c0,0,0,0.1,0,0.1c0,0.3,0,2.2,0,2.3c0,0,0,0.1-0.1,0.1L431,11.3z M429.4,11.3c-0.1,0-0.1,0-0.1-0.1
		c0,0,0-0.1-0.1-0.2c-0.1-0.4-0.4-1-0.4-1.2c-0.1-0.3-0.1-0.6,0.3-0.7c0.1,0,0.2-0.1,0.4-0.1c0.1,0,0.3-0.1,0.4-0.1l0,0
		c0,0,0,0,0.1,0c0.1,0,0.2,0.1,0.2,0.1c0.1,0.3,0.2,0.6,0.3,0.9c0,0,0,0.1,0,0.1c0,0,0,0-0.1,0h-0.4c0,0-0.1,0-0.1-0.1
		c-0.1-0.2-0.1-0.3-0.2-0.5c0,0,0,0-0.1,0c0,0,0,0,0,0l-0.2,0.1c-0.1,0-0.1,0.1-0.1,0.2c0,0,0.4,1.1,0.5,1.4c0,0,0,0.1,0,0.1
		c0,0,0,0-0.1,0L429.4,11.3z M431.2,8.4C431.2,8.4,431.1,8.4,431.2,8.4c-0.2-0.1-0.4-0.3-0.5-0.5c0,0,0-0.1,0-0.1
		c0.1-0.2,0.3-0.3,0.5-0.4c0,0,0,0,0,0c0,0,0,0,0,0c0.2,0.1,0.3,0.3,0.5,0.4c0,0,0,0.1,0,0.1C431.6,8.1,431.4,8.3,431.2,8.4
		C431.2,8.4,431.2,8.4,431.2,8.4L431.2,8.4z"/>
</g>
</svg>
