<svg id="Layer_1" data-name="Layer 1" xmlns="http://www.w3.org/2000/svg" xmlns:xlink="http://www.w3.org/1999/xlink" viewBox="0 0 265 90.29"><defs><linearGradient id="linear-gradient" x1="26.97" y1="56.57" x2="45.76" y2="24.03" gradientUnits="userSpaceOnUse"><stop offset="0" stop-color="#00cae9"/><stop offset="1" stop-color="#00ff09"/></linearGradient><linearGradient id="linear-gradient-2" x1="59.49" y1="89.89" x2="78.27" y2="57.35" xlink:href="#linear-gradient"/></defs><title>PowerdBy</title><path d="M41.79,23.64c-5.42,0-21.7,0-21.7,0v22.1S20.09,57,31,57H52.61V34.74S52.61,23.64,41.79,23.64Zm6.49,28.88H32.41c-8,0-8-8.2-8-8.2V28.12s11.93,0,15.91,0c7.94,0,7.94,8.15,7.94,8.15Z" style="fill:url(#linear-gradient)"/><path d="M74.3,57c-5.42,0-21.7,0-21.7,0v22.1s0,11.18,10.9,11.18H85.12V68.06S85.12,57,74.3,57Zm6.49,28.88H64.93c-8,0-8-8.19-8-8.19V61.44s11.93,0,15.91,0c7.94,0,7.94,8.15,7.94,8.15Z" style="fill:url(#linear-gradient-2)"/><path d="M101.54,71.79l1.32-4.56A23.54,23.54,0,0,0,107.6,69a20,20,0,0,0,5.34.78,11.66,11.66,0,0,0,6.6-1.59,4.94,4.94,0,0,0,2.34-4.29,5.29,5.29,0,0,0-1.17-3.39,11.41,11.41,0,0,0-3.33-2.7q-2.16-1.23-6-2.91a35.79,35.79,0,0,1-6-3.27,10,10,0,0,1-4.53-8.85,9.43,9.43,0,0,1,1.62-5.4,10.89,10.89,0,0,1,4.65-3.78,17,17,0,0,1,7.11-1.38,21.43,21.43,0,0,1,5.67.78A28,28,0,0,1,125,34.95l-1.92,4.56a27.26,27.26,0,0,0-4-1.59,15.57,15.57,0,0,0-4.47-.57,10.9,10.9,0,0,0-5.82,1.38,4.4,4.4,0,0,0-2.22,4,5.46,5.46,0,0,0,1.14,3.45A10.76,10.76,0,0,0,111,48.81q2.1,1.2,6.18,3.06a26.14,26.14,0,0,1,8,5.1,9.44,9.44,0,0,1,2.55,6.84A9.76,9.76,0,0,1,126,69.54a11.24,11.24,0,0,1-5,3.87A20.49,20.49,0,0,1,113,74.79a27.2,27.2,0,0,1-6.45-1Q102.74,72.87,101.54,71.79Z" style="fill:#333"/><path d="M152.93,46a12.67,12.67,0,0,1,5,5.43,18.22,18.22,0,0,1,1.74,8.19,16.76,16.76,0,0,1-1.8,7.92,12.93,12.93,0,0,1-5.1,5.31,15.06,15.06,0,0,1-7.62,1.89,11.13,11.13,0,0,1-2.79-.42,14.37,14.37,0,0,1-3.15-1.26V86.49l-5.76.66V44.91h3.24l1.26,1.8a16.5,16.5,0,0,1,3.81-1.89,10.93,10.93,0,0,1,3.45-.69A15,15,0,0,1,152.93,46Zm-1.41,21a11.3,11.3,0,0,0,2.28-7.29A12.4,12.4,0,0,0,151.55,52,7.51,7.51,0,0,0,145.22,49a8.92,8.92,0,0,0-6,2.1V67.89a9.42,9.42,0,0,0,6,2A7.62,7.62,0,0,0,151.52,67Z" style="fill:#333"/><path d="M190.58,67.47a13,13,0,0,1-5.13,5.4,15.29,15.29,0,0,1-7.77,1.92A14.84,14.84,0,0,1,170,72.87a12.7,12.7,0,0,1-5-5.4,17.74,17.74,0,0,1-1.74-8,17.12,17.12,0,0,1,1.8-8,13,13,0,0,1,5.1-5.4,15.12,15.12,0,0,1,7.74-1.92A14.84,14.84,0,0,1,185.57,46a12.91,12.91,0,0,1,5,5.4,17.5,17.5,0,0,1,1.77,8A17.13,17.13,0,0,1,190.58,67.47Zm-6.51-.54a11.65,11.65,0,0,0,2.43-7.38A12,12,0,0,0,184.22,52a7.56,7.56,0,0,0-6.3-2.91A7.71,7.71,0,0,0,171.59,52a11.63,11.63,0,0,0-2.43,7.38A12,12,0,0,0,171.44,67a7.56,7.56,0,0,0,6.3,2.91A7.71,7.71,0,0,0,184.07,66.93Z" style="fill:#333"/><path d="M205,45.27h5.28l1.8,4.38H205V65a6,6,0,0,0,1,3.69A3.66,3.66,0,0,0,209.12,70a8.39,8.39,0,0,0,2.82-.66l1.5,4.38a11.5,11.5,0,0,1-2.31.87,9.86,9.86,0,0,1-2.61.39,9.47,9.47,0,0,1-6.81-2.37,8.88,8.88,0,0,1-2.49-6.75V49.65h-4.08l-.06-4.38h4.14V38L205,36.69Z" style="fill:#333"/><path d="M216.68,72.15l1.8-4a17.87,17.87,0,0,0,7.8,2,8.92,8.92,0,0,0,4.59-1,3.06,3.06,0,0,0,1.71-2.7q0-3-6.48-5-9.54-3.12-9.54-8.76a7.36,7.36,0,0,1,3-6.21,13.06,13.06,0,0,1,8.07-2.25,18.36,18.36,0,0,1,4.83.78,15.21,15.21,0,0,1,4.53,2l-1.8,3.9a29.06,29.06,0,0,0-3.84-1.47,13.63,13.63,0,0,0-3.84-.51,6.3,6.3,0,0,0-3.75,1.05,3.12,3.12,0,0,0-1.47,2.61,3,3,0,0,0,1.59,2.22,19,19,0,0,0,4.41,2q9.84,3.54,9.84,9.42A7.54,7.54,0,0,1,235,72.51q-3.06,2.28-8.76,2.28a21.37,21.37,0,0,1-5-.72A13.49,13.49,0,0,1,216.68,72.15Z" style="fill:#333"/><path d="M20.34,1A24.57,24.57,0,0,1,24.66.65a7,7,0,0,1,4.58,1.26,4.38,4.38,0,0,1,1.52,3.43,4.7,4.7,0,0,1-1.33,3.52,6.84,6.84,0,0,1-4.9,1.66,7.94,7.94,0,0,1-1.38-.09v5.84H20.34ZM23.14,8.2a5.71,5.71,0,0,0,1.38.12c2.12,0,3.4-1,3.4-2.85s-1.2-2.64-3.15-2.64A7.87,7.87,0,0,0,23.14,3Z" style="fill:#333"/><path d="M43.15,10.56a5.55,5.55,0,0,1-5.75,6,5.41,5.41,0,0,1-5.61-5.77,5.53,5.53,0,0,1,5.79-5.93A5.37,5.37,0,0,1,43.15,10.56Zm-8.44.12c0,2.16,1.06,3.79,2.78,3.79s2.74-1.59,2.74-3.84c0-1.75-.78-3.75-2.71-3.75S34.71,8.82,34.71,10.68Z" style="fill:#333"/><path d="M47,5.07l1.17,5.08c.25,1.2.51,2.41.71,3.63h0c.23-1.22.6-2.46.92-3.61l1.45-5.1h2.3L55,10c.34,1.31.64,2.53.9,3.75h0c.18-1.22.44-2.44.74-3.75l1.24-5H60.7l-3.52,11.2H54.56l-1.33-4.55a34.22,34.22,0,0,1-.85-3.59h0a29.51,29.51,0,0,1-.85,3.59l-1.43,4.55H47.41L44.1,5.07Z" style="fill:#333"/><path d="M64.22,11.46c.07,2,1.66,2.9,3.45,2.9a8.43,8.43,0,0,0,3.1-.51l.41,2a10.55,10.55,0,0,1-3.91.69c-3.63,0-5.77-2.23-5.77-5.66,0-3.1,1.89-6,5.47-6s4.83,3,4.83,5.45a7,7,0,0,1-.09,1.2Zm4.92-2a2.41,2.41,0,0,0-2.32-2.74,2.77,2.77,0,0,0-2.6,2.74Z" style="fill:#333"/><path d="M74.09,8.68c0-1.52,0-2.6-.09-3.61h2.46l.09,2.14h.09A3.34,3.34,0,0,1,79.7,4.82a3,3,0,0,1,.67.07V7.55a3.94,3.94,0,0,0-.83-.09A2.49,2.49,0,0,0,77,9.6a4.87,4.87,0,0,0-.09.87v5.79H74.09Z" style="fill:#333"/><path d="M92.39-.06V13.12c0,1.15,0,2.39.09,3.15H90l-.11-1.77h0a4,4,0,0,1-3.66,2c-2.67,0-4.78-2.28-4.78-5.73,0-3.75,2.32-6,5-6a3.57,3.57,0,0,1,3.15,1.47h0V-.06Zm-2.83,9.8A4,4,0,0,0,89.5,9a2.48,2.48,0,0,0-2.44-2c-1.82,0-2.83,1.61-2.83,3.7s1,3.54,2.81,3.54a2.49,2.49,0,0,0,2.44-2,3.13,3.13,0,0,0,.09-.83Z" style="fill:#333"/><path d="M100.31,1a23.68,23.68,0,0,1,4.12-.32c2.09,0,3.38.25,4.44,1a3.27,3.27,0,0,1,1.61,2.9A3.61,3.61,0,0,1,107.9,7.9v0A3.91,3.91,0,0,1,111,11.78a4,4,0,0,1-1.49,3.2c-1.1,1-2.92,1.45-5.75,1.45a27.43,27.43,0,0,1-3.47-.21Zm2.81,6.12h1.45c2,0,3.06-.92,3.06-2.23s-1.1-2.12-2.9-2.12a7.73,7.73,0,0,0-1.61.12Zm0,7.13a12.51,12.51,0,0,0,1.49.07c1.82,0,3.43-.69,3.43-2.6s-1.56-2.53-3.52-2.53h-1.4Z" style="fill:#333"/><path d="M115.21,5.07l2,6c.23.69.46,1.54.62,2.18h.07c.18-.64.39-1.47.6-2.21l1.75-6h3L120.5,12.7c-1.54,4.19-2.58,6-3.91,7.2a5.68,5.68,0,0,1-3,1.45L113,19a4.85,4.85,0,0,0,1.66-.78,4.93,4.93,0,0,0,1.54-1.77,1.13,1.13,0,0,0,.18-.51,1.2,1.2,0,0,0-.16-.55L112.11,5.07Z" style="fill:#333"/></svg>