<svg id="Layer_1" data-name="Layer 1" xmlns="http://www.w3.org/2000/svg" viewBox="0 0 265 265"><defs><style>.cls-1,.cls-2{fill:none;stroke:#000;stroke-miterlimit:10;stroke-width:6px;}.cls-2{stroke-linecap:round;}</style></defs><title>radio</title><g id="radio"><path class="cls-1" d="M187.11,228H78.89A14.92,14.92,0,0,1,64,213.13V52.87A14.92,14.92,0,0,1,78.89,38H187.11A14.92,14.92,0,0,1,202,52.87q0,74.07,0,148.15,0,6.06,0,12.11a15.22,15.22,0,0,1-4.37,10.5A14.85,14.85,0,0,1,187.11,228Z"/><circle class="cls-1" cx="132" cy="163" r="51"/><ellipse class="cls-1" cx="132.5" cy="163" rx="12.5" ry="12"/><circle class="cls-1" cx="132.5" cy="72.5" r="17.5"/><path class="cls-2" d="M139.25,138.83C149,141,156,148,158,159"/><path class="cls-2" d="M144.56,199.12a39.79,39.79,0,0,1-45.69-18"/></g></svg>