<svg xmlns="http://www.w3.org/2000/svg" viewBox="0 0 265 265"><defs><style>.cls-1,.cls-5,.cls-7{fill:#f2f2f2;}.cls-1,.cls-4,.cls-5,.cls-6,.cls-7{stroke:#666;}.cls-1,.cls-2,.cls-3,.cls-4,.cls-5,.cls-6,.cls-7{stroke-miterlimit:10;}.cls-1,.cls-2,.cls-3,.cls-4,.cls-5,.cls-6{stroke-width:2px;}.cls-2{fill:#e6e6e6;stroke:#e6e6e6;}.cls-2,.cls-3,.cls-5,.cls-6,.cls-7{stroke-linecap:round;}.cls-3{fill:none;stroke:#ccc;}.cls-4{fill:#ccc;}.cls-6{fill:#b3b3b3;}.cls-7{stroke-width:4px;}</style></defs><title>reservation_empty</title><g id="Layer_2" data-name="Layer 2"><circle class="cls-1" cx="133" cy="133" r="129"/><path class="cls-2" d="M152.06,60.26a21.32,21.32,0,0,1,38.6-4.7"/><path class="cls-2" d="M152.06,60.38a17.08,17.08,0,0,0-3.17.12,16.55,16.55,0,0,0,2.21,33h37.35l.61,0a19,19,0,0,0,1.59-37.74"/><path class="cls-3" d="M157.62,54.14c1.13-1.44,5.56-6.75,12.85-7.56a17.47,17.47,0,0,1,6.31.46"/><path class="cls-3" d="M205.41,76.37a16.59,16.59,0,0,1-2.64,7.38A17.12,17.12,0,0,1,196.87,89"/><path class="cls-3" d="M163.7,60.73a9.78,9.78,0,0,1,6.82-6"/><line class="cls-3" x1="208.84" y1="59.75" x2="230.88" y2="59.75"/><line class="cls-3" x1="217.92" y1="74.01" x2="229.59" y2="74.01"/><line class="cls-3" x1="210.14" y1="86.97" x2="239.96" y2="86.97"/><path class="cls-2" d="M78.78,92.71a14.61,14.61,0,0,0-26.46-3.22"/><path class="cls-2" d="M78.78,92.83a11.65,11.65,0,0,1,1.76,0,11.34,11.34,0,0,1-1.1,22.63H53.83l-.42,0a13,13,0,0,1-1.09-25.86"/><path class="cls-3" d="M75,88.52a13.52,13.52,0,0,0-8.81-5.18,12,12,0,0,0-4.32.32"/><path class="cls-3" d="M42.22,103.75A11.37,11.37,0,0,0,44,108.8a11.74,11.74,0,0,0,4,3.62"/><path class="cls-3" d="M70.8,93a6.7,6.7,0,0,0-4.67-4.1"/><line class="cls-3" x1="92.16" y1="96.05" x2="105.13" y2="96.05"/><line class="cls-3" x1="97.35" y1="103.83" x2="105.13" y2="103.83"/><line class="cls-3" x1="92.16" y1="112.9" x2="111.61" y2="112.9"/><path class="cls-1" d="M144.49,122v92.49a2,2,0,0,1-2,2H67.43a2,2,0,0,1-2-2V108.82a2,2,0,0,1,2-2h62Z"/><rect class="cls-4" x="69.29" y="111" width="19.33" height="19.33" rx="1" ry="1"/><line class="cls-5" x1="78" y1="138" x2="137" y2="138"/><line class="cls-5" x1="97" y1="114" x2="129" y2="114"/><line class="cls-5" x1="97" y1="122" x2="137" y2="122"/><line class="cls-5" x1="97" y1="130" x2="137" y2="130"/><line class="cls-5" x1="78" y1="146" x2="137" y2="146"/><path class="cls-1" d="M143.83,122.38h-13a2,2,0,0,1-2-2v-13"/><path class="cls-1" d="M198.49,130v92.49a2,2,0,0,1-2,2H121.43a2,2,0,0,1-2-2V116.82a2,2,0,0,1,2-2h62Z"/><rect class="cls-4" x="123.29" y="119" width="19.33" height="19.33" rx="1" ry="1"/><line class="cls-5" x1="132" y1="146" x2="191" y2="146"/><line class="cls-5" x1="151" y1="122" x2="183" y2="122"/><line class="cls-5" x1="151" y1="130" x2="191" y2="130"/><line class="cls-5" x1="151" y1="138" x2="191" y2="138"/><line class="cls-5" x1="132" y1="154" x2="191" y2="154"/><path class="cls-1" d="M197.83,130.38h-13a2,2,0,0,1-2-2v-13"/><path class="cls-1" d="M177.49,145v92.49a2,2,0,0,1-2,2H100.43a2,2,0,0,1-2-2V131.82a2,2,0,0,1,2-2h62Z"/><rect class="cls-4" x="102.29" y="134" width="19.33" height="19.33" rx="1" ry="1"/><line class="cls-5" x1="111" y1="161" x2="170" y2="161"/><line class="cls-5" x1="130" y1="137" x2="162" y2="137"/><line class="cls-5" x1="130" y1="145" x2="170" y2="145"/><line class="cls-5" x1="130" y1="153" x2="170" y2="153"/><line class="cls-5" x1="111" y1="169" x2="170" y2="169"/><line class="cls-5" x1="111" y1="178" x2="170" y2="178"/><line class="cls-5" x1="111" y1="186" x2="170" y2="186"/><line class="cls-5" x1="111" y1="195" x2="170" y2="195"/><line class="cls-5" x1="111" y1="203" x2="170" y2="203"/><path class="cls-1" d="M176.83,145.38h-13a2,2,0,0,1-2-2v-13"/><circle class="cls-5" cx="161.46" cy="206" r="17.75"/><circle class="cls-6" cx="161.46" cy="206" r="13.5"/><rect class="cls-5" x="183.21" y="213.63" width="6.62" height="32.63" rx="2" ry="2" transform="translate(-107.96 199.24) rotate(-45)"/><line class="cls-7" x1="149" y1="205" x2="167" y2="205"/></g></svg>