<svg id="Layer_1" data-name="Layer 1" xmlns="http://www.w3.org/2000/svg" viewBox="0 0 265 265"><defs><style>.cls-1,.cls-2,.cls-3{fill:none;stroke:#000;stroke-miterlimit:10;}.cls-1,.cls-2{stroke-linecap:round;}.cls-1{stroke-width:6px;}.cls-2{stroke-width:4px;}.cls-3{stroke-width:13px;}</style></defs><title>shower</title><path class="cls-1" d="M97.83,123.5h69.35c0-23.75-14.25-23.75-35.15-23.75C112.08,99.75,97.83,99.75,97.83,123.5Z"/><rect class="cls-2" x="84" y="131.5" width="97" height="11" rx="4" ry="4"/><circle class="cls-2" cx="133" cy="161.5" r="7"/><circle class="cls-2" cx="133" cy="182.5" r="7"/><circle class="cls-2" cx="133" cy="202.5" r="7"/><circle class="cls-2" cx="133" cy="223.5" r="7"/><circle class="cls-2" cx="155" cy="160.5" r="7" transform="translate(-21.16 23.56) rotate(-8.14)"/><circle class="cls-2" cx="158" cy="181.5" r="7" transform="translate(-24.11 24.2) rotate(-8.14)"/><circle class="cls-2" cx="161" cy="201.5" r="7" transform="translate(-26.91 24.83) rotate(-8.14)"/><circle class="cls-2" cx="164" cy="222.5" r="7" transform="translate(-29.85 25.46) rotate(-8.14)"/><circle class="cls-2" cx="111" cy="160.5" r="7" transform="translate(-63.6 247.66) rotate(-81.86)"/><circle class="cls-2" cx="108" cy="181.5" r="7" transform="translate(-86.96 262.71) rotate(-81.86)"/><circle class="cls-2" cx="105" cy="201.5" r="7" transform="translate(-109.34 276.91) rotate(-81.86)"/><circle class="cls-2" cx="102" cy="222.5" r="7" transform="translate(-132.7 291.97) rotate(-81.86)"/><circle class="cls-2" cx="176" cy="158.5" r="7" transform="translate(-35.15 51.2) rotate(-15.07)"/><circle class="cls-2" cx="181" cy="178.5" r="7" transform="translate(-40.18 53.18) rotate(-15.07)"/><circle class="cls-2" cx="187" cy="198.5" r="7" transform="translate(-45.17 55.43) rotate(-15.07)"/><circle class="cls-2" cx="192" cy="218.5" r="7" transform="translate(-50.2 57.42) rotate(-15.07)"/><circle class="cls-2" cx="89" cy="157.5" r="7" transform="translate(-86.22 202.5) rotate(-74.93)"/><circle class="cls-2" cx="84" cy="177.5" r="7" transform="matrix(0.26, -0.97, 0.97, 0.26, -109.23, 212.47)"/><circle class="cls-2" cx="78" cy="197.5" r="7" transform="translate(-132.99 221.48) rotate(-74.93)"/><circle class="cls-2" cx="73" cy="217.5" r="7" transform="translate(-156 231.46) rotate(-74.93)"/><path class="cls-3" d="M132.5,94.5V87.78A32.77,32.77,0,0,1,165.28,55H176"/><rect class="cls-2" x="181" y="37.5" width="12" height="37" rx="4" ry="4"/></svg>