<svg id="Layer_1" data-name="Layer 1" xmlns="http://www.w3.org/2000/svg" viewBox="0 0 265 265"><defs><style>.cls-1,.cls-2{fill:none;}.cls-1,.cls-2,.cls-3{stroke:#000;stroke-miterlimit:10;stroke-width:6px;}.cls-1{stroke-linecap:round;}.cls-3{fill:#fff;}</style></defs><title>singeldbed</title><g id="beds"><path class="cls-1" d="M97.78,49.5h69.38a8,8,0,0,1,8,8v52.38a0,0,0,0,1,0,0H89.78a0,0,0,0,1,0,0V57.5A8,8,0,0,1,97.78,49.5Z"/><polygon class="cls-1" points="183.56 172.66 81.37 172.66 89.78 109.88 175.16 109.88 183.56 172.66"/><line class="cls-1" x1="86.39" y1="198.82" x2="86.39" y2="215.5"/><line class="cls-1" x1="178.95" y1="198.82" x2="178.95" y2="215.5"/><polyline class="cls-2" points="81 174.3 81 198.82 184 198.82 184 174.3"/><rect class="cls-3" x="112.68" y="76.85" width="40.98" height="41.86" rx="9" ry="9"/></g></svg>