<svg id="Layer_1" data-name="Layer 1" xmlns="http://www.w3.org/2000/svg" viewBox="0 0 265 265"><defs><style>.cls-1,.cls-2{fill:none;stroke-linejoin:round;}.cls-1,.cls-2,.cls-4{stroke:#000;stroke-linecap:round;}.cls-1,.cls-4{stroke-width:6px;}.cls-2{stroke-width:4px;}.cls-3,.cls-4{fill:#3fe1ff;}.cls-4{stroke-miterlimit:10;}</style></defs><title>washingmachine</title><rect class="cls-1" x="38" y="38" width="190" height="190" rx="12" ry="12"/><path class="cls-1" d="M189.36,155a56.86,56.86,0,0,1-113.72,0,50,50,0,0,1,2.6-17C85.07,117.79,106.06,98,132.5,98.13,161.8,98.24,189.36,122.67,189.36,155Z"/><circle class="cls-2" cx="54" cy="53" r="7"/><circle class="cls-2" cx="75" cy="53" r="7"/><circle class="cls-2" cx="96" cy="53" r="7"/><path class="cls-1" d="M77.79,143.59C81,145.31,87.35,155,109.69,155c14.7,0,25.19-10.69,41.34-11.66,9.83-.59,18.12.42,36.76,12"/><path class="cls-3" d="M86.89,158.12c-.32,29.52,26,44.56,47.6,44.56,25.64,0,43.63-23,43.63-41.2-12.47-7.82-18.56-9-24.27-9-3.74,0-11.61,1.34-20,5.11-7.55,3.4-14.29,6.49-22,6.8C104.73,164.65,92,162.81,86.89,158.12Z"/><line class="cls-4" x1="51" y1="68" x2="214" y2="68"/></svg>