<svg id="Layer_1" data-name="Layer 1" xmlns="http://www.w3.org/2000/svg" viewBox="0 0 64 64"><title>basics</title><path d="M44.4,52H14.57a.73.73,0,0,1,0-1.46H44.4a.73.73,0,1,1,0,1.46Z"/><path d="M44.4,47.89H14.57a.73.73,0,0,1,0-1.46H44.4a.73.73,0,0,1,0,1.46Z"/><path d="M55.55,16.85H44.88a.73.73,0,0,1-.72-.73.72.72,0,0,1,.72-.72H55.55a.73.73,0,0,1,.73.72A.73.73,0,0,1,55.55,16.85Z"/><path d="M14.57,16.85H9.48a.73.73,0,0,1-.73-.73.73.73,0,0,1,.73-.72h5.09a.72.72,0,0,1,.73.72A.73.73,0,0,1,14.57,16.85Z"/><path d="M42.46,56.37H16.51a2.6,2.6,0,0,1-2.66-2.54V13A4.06,4.06,0,0,1,17.5,8.85H47.55a.73.73,0,1,1,0,1.45h-30A2.68,2.68,0,0,0,15.3,13V53.83a1.15,1.15,0,0,0,1.21,1.09h26a1.15,1.15,0,0,0,1.21-1.09V16c0-.4-.18-2.63.89-3.81a2.23,2.23,0,0,1,1.69-.74,2.29,2.29,0,0,1,2.49,2.43.73.73,0,0,1-1.46,0c0-.5-.12-1-1-1a.78.78,0,0,0-.61.25,4.45,4.45,0,0,0-.52,2.74s0,.05,0,.07V53.83A2.61,2.61,0,0,1,42.46,56.37Z"/><path d="M47.17,50.55H44.88a.73.73,0,0,1,0-1.45h2.29c2,0,2.8-.68,2.8-2.41v-33a5.9,5.9,0,0,0-.32-2.33c-.21-.47-.66-1.08-2.08-1.08a.73.73,0,0,1,0-1.46A3.39,3.39,0,0,1,51,10.78a7,7,0,0,1,.46,2.94v33C51.43,49.25,50,50.55,47.17,50.55Z"/></svg>