<svg id="Layer_1" data-name="Layer 1" xmlns="http://www.w3.org/2000/svg" viewBox="0 0 64 64"><defs><style>.cls-1{fill:#fff;}</style></defs><title>bunkbed</title><g id="beds"><polygon points="43.05 47.86 20.94 47.86 22.28 38.27 23.53 38.45 22.39 46.6 41.6 46.6 40.46 38.45 41.71 38.27 43.05 47.86"/><polygon points="43.03 52.9 20.97 52.9 20.97 47.44 22.23 47.44 22.23 51.64 41.77 51.64 41.77 47.44 43.03 47.44 43.03 52.9"/></g><g id="beds-2" data-name="beds"><path d="M41.35,21.81H22.86V11.31A2.32,2.32,0,0,1,25.17,9H39a2.32,2.32,0,0,1,2.31,2.31ZM24.12,20.55h16V11.31A1,1,0,0,0,39,10.26H25.17a1,1,0,0,0-1.05,1.05Z"/><path d="M43.08,34H20.91l1.88-13.45H41.2ZM22.36,32.74H41.63L40.1,21.81H23.88Z"/><polygon points="43.03 39.04 20.97 39.04 20.97 33.58 22.23 33.58 22.23 37.78 41.77 37.78 41.77 33.58 43.03 33.58 43.03 39.04"/><rect class="cls-1" x="28.11" y="14.88" width="7.98" height="7.98" rx="3.7" ry="3.7"/><path d="M34.21,23.49H30A2.52,2.52,0,0,1,27.48,21v-4.2A2.52,2.52,0,0,1,30,14.25h4.21a2.52,2.52,0,0,1,2.52,2.52V21A2.52,2.52,0,0,1,34.21,23.49Zm-4.21-8a1.27,1.27,0,0,0-1.26,1.26V21A1.26,1.26,0,0,0,30,22.23h4.21A1.26,1.26,0,0,0,35.47,21v-4.2a1.27,1.27,0,0,0-1.26-1.26Z"/></g><path d="M20.76,55a.63.63,0,0,1-.63-.63V25.59a.63.63,0,0,1,1.26,0V54.37A.63.63,0,0,1,20.76,55Z"/><path d="M43.24,55a.63.63,0,0,1-.63-.63V25.59a.63.63,0,1,1,1.26,0V54.37A.63.63,0,0,1,43.24,55Z"/></svg>