<svg id="Layer_1" data-name="Layer 1" xmlns="http://www.w3.org/2000/svg" viewBox="0 0 64 64"><defs><style>.cls-1{fill:#fff;}</style></defs><title>dubblebed</title><g id="beds"><path d="M51.44,11.9a2.64,2.64,0,0,0-1.89-.81L15,10.85h0a2.69,2.69,0,0,0-2.69,2.67L12.15,26.2v.86h1.3l4.67,0H19.7l0-.08a1.37,1.37,0,0,1-.18-.69v-.23a4.25,4.25,0,0,0,.71.93.3.3,0,0,0,.08.08l7,.05a.3.3,0,0,0,.08-.08,4.08,4.08,0,0,0,.71-.9v.21a1.37,1.37,0,0,1-.18.69l0,.08h1.58l5,0H36s0-.05,0-.08a1.4,1.4,0,0,1-.18-.7v-.22a3.51,3.51,0,0,0,.27.4,4.42,4.42,0,0,0,.44.53.46.46,0,0,1,.07.07l7,.05.08-.07a4.65,4.65,0,0,0,.72-.92v.22a1.38,1.38,0,0,1-.19.7.16.16,0,0,1,0,.07h1.58l5.16,0h1.29v-.89l.09-12.65A2.63,2.63,0,0,0,51.44,11.9ZM44.32,25.82l-8.55-.06H34.3l-4.8,0H28l-8.56-.07H18l-4.4,0v-.07l.09-12a1.22,1.22,0,0,1,1.22-1.22h0l34.6.25a1.19,1.19,0,0,1,.86.37,1.17,1.17,0,0,1,.35.86l-.08,12v.08l-4.88,0H44.32Z"/><path d="M35.76,26.45v-.69H34.3l-4.8,0H28.29a2.77,2.77,0,0,1-.26.48v.21a1.37,1.37,0,0,1-.18.69l1.56,0,5,0h1.56A1.4,1.4,0,0,1,35.76,26.45Zm0,0v-.69H34.3l-4.8,0H28.29a2.77,2.77,0,0,1-.26.48v.21a1.37,1.37,0,0,1-.18.69l1.56,0,5,0h1.56A1.4,1.4,0,0,1,35.76,26.45Zm0,0v-.69H34.3l-4.8,0H28.29a2.77,2.77,0,0,1-.26.48v.21a1.37,1.37,0,0,1-.18.69l1.56,0,5,0h1.56A1.4,1.4,0,0,1,35.76,26.45Zm0,0v-.69H34.3l-4.8,0H28.29a2.77,2.77,0,0,1-.26.48v.21a1.37,1.37,0,0,1-.18.69l1.56,0,5,0h1.56A1.4,1.4,0,0,1,35.76,26.45Zm20.18,16L52.13,26.45,52,25.8h-1.3l-4.87,0H44.33l-8.56-.06H34.31l-4.8,0H28l-8.55-.06H18l-4.4,0h-1.3l-.17.68-4,15.7-.1.4H9.49l45,.32H56v0Zm-46-1.55,3.51-13.78,0-.08,4.63,0h1.57a1.37,1.37,0,0,1-.18-.69v-.23a4.25,4.25,0,0,0,.71.93l7.13.05a4.08,4.08,0,0,0,.71-.9v.21a1.37,1.37,0,0,1-.18.69l1.56,0,5,0h1.56a1.4,1.4,0,0,1-.18-.7v-.22a3.51,3.51,0,0,0,.27.4,4.42,4.42,0,0,0,.44.53l7.13.05a4.65,4.65,0,0,0,.72-.92v.22a1.38,1.38,0,0,1-.19.7h1.56l5.12,0,0,.07,3.31,13.83Zm25.83-14.4v-.69H34.3l-4.8,0H28.29a2.77,2.77,0,0,1-.26.48v.21a1.37,1.37,0,0,1-.18.69l1.56,0,5,0h1.56A1.4,1.4,0,0,1,35.76,26.45Zm0,0v-.69H34.3l-4.8,0H28.29a2.77,2.77,0,0,1-.26.48v.21a1.37,1.37,0,0,1-.18.69l1.56,0,5,0h1.56A1.4,1.4,0,0,1,35.76,26.45Zm0,0v-.69H34.3l-4.8,0H28.29a2.77,2.77,0,0,1-.26.48v.21a1.37,1.37,0,0,1-.18.69l1.56,0,5,0h1.56A1.4,1.4,0,0,1,35.76,26.45Zm0,0v-.69H34.3l-4.8,0H28.29a2.77,2.77,0,0,1-.26.48v.21a1.37,1.37,0,0,1-.18.69l1.56,0,5,0h1.56A1.4,1.4,0,0,1,35.76,26.45Z"/><path d="M11.18,52.91h0a.74.74,0,0,1-.73-.74l0-4.16a.76.76,0,0,1,.74-.73.74.74,0,0,1,.73.74l0,4.16A.73.73,0,0,1,11.18,52.91Z"/><path d="M53,53.15h0a.73.73,0,0,1-.73-.74l0-4.15a.73.73,0,0,1,.73-.73h0a.74.74,0,0,1,.73.74l0,4.15A.74.74,0,0,1,53,53.15Z"/><polygon points="55.95 49.09 7.98 48.75 8.03 41.9 9.49 41.91 9.46 47.29 54.49 47.61 54.53 42.39 56 42.4 55.95 49.09"/><path class="cls-1" d="M28.79,23.34v.25a5,5,0,0,1-.46,2,.12.12,0,0,1,0,.08,2.77,2.77,0,0,1-.26.48,4.08,4.08,0,0,1-.71.9.3.3,0,0,1-.08.08,4.88,4.88,0,0,1-.89.68,5,5,0,0,1-5.21,0,4.48,4.48,0,0,1-.87-.69.3.3,0,0,1-.08-.08,4.25,4.25,0,0,1-.71-.93,3,3,0,0,1-.25-.47.25.25,0,0,1,0-.07,5,5,0,0,1-.42-2.05v-.21a5,5,0,0,1,.75-2.58,4.85,4.85,0,0,1,1.69-1.68,5,5,0,0,1,7.58,4.29Z"/><path d="M28,25.71v.48a2.77,2.77,0,0,0,.26-.48Zm0,0v.48a2.77,2.77,0,0,0,.26-.48Zm0,0v.48a2.77,2.77,0,0,0,.26-.48Zm0,0v.48a2.77,2.77,0,0,0,.26-.48Zm.66-7.22a2.89,2.89,0,0,0-2.07-.87l-5.62,0h0a2.93,2.93,0,0,0-2.93,2.91l0,5.07v.77a3.1,3.1,0,0,0,.08.69.24.24,0,0,0,0,.08,3,3,0,0,0,2.82,2.18l5.62,0h0a2.92,2.92,0,0,0,2.06-.85,2.84,2.84,0,0,0,.76-1.29.14.14,0,0,0,0-.07,2.69,2.69,0,0,0,.09-.7v-.77l0-5.07A2.9,2.9,0,0,0,28.7,18.49Zm-.89,8.68a1.71,1.71,0,0,1-.21.26,1.49,1.49,0,0,1-1,.42h-.22l-5.21,0h-.2a1.44,1.44,0,0,1-1.24-.7l0-.08a1.37,1.37,0,0,1-.18-.69v-.77l0-4.84V20.5A1.47,1.47,0,0,1,21,19.05h.22l5.21,0h.2a1.42,1.42,0,0,1,1,.43,1.46,1.46,0,0,1,.43,1v.23l0,4.84v.77a1.37,1.37,0,0,1-.18.69ZM28,25.71v.48a2.77,2.77,0,0,0,.26-.48Zm0,0v.48a2.77,2.77,0,0,0,.26-.48Zm0,0v.48a2.77,2.77,0,0,0,.26-.48Zm0,0v.48a2.77,2.77,0,0,0,.26-.48Z"/><path class="cls-1" d="M45.07,23.45v.26a5,5,0,0,1-.46,2,.2.2,0,0,1,0,.08,2.94,2.94,0,0,1-.25.46,4.65,4.65,0,0,1-.72.92l-.08.07a4.58,4.58,0,0,1-.9.69,4.89,4.89,0,0,1-2.59.71,5,5,0,0,1-2.58-.75,4.41,4.41,0,0,1-.91-.7.46.46,0,0,0-.07-.07,4.42,4.42,0,0,1-.44-.53,3.51,3.51,0,0,1-.27-.4,4.23,4.23,0,0,1-.25-.47s0-.05,0-.08h0a5,5,0,0,1-.42-2v-.22a5,5,0,0,1,2.46-4.26,4.89,4.89,0,0,1,2.59-.71,5,5,0,0,1,5,5Z"/><path d="M45,18.61a2.94,2.94,0,0,0-2.07-.88l-5.62,0h0a3,3,0,0,0-2.93,2.92l0,5.07v.76a2.68,2.68,0,0,0,.08.7.19.19,0,0,0,0,.08,2.93,2.93,0,0,0,.74,1.3,3,3,0,0,0,2.07.88l5.62,0h0a2.93,2.93,0,0,0,2.82-2.15.11.11,0,0,0,0-.07,2.37,2.37,0,0,0,.1-.7v-.76l0-5.07A3,3,0,0,0,45,18.61Zm-.89,8.67a1.43,1.43,0,0,1-1.24.69h-.23l-5.17,0h-.23a1.45,1.45,0,0,1-1-.44,1.71,1.71,0,0,1-.21-.26s0-.05,0-.08a1.4,1.4,0,0,1-.18-.7v-.76l0-4.87v-.2a1.46,1.46,0,0,1,1.46-1.46h.24l5.17,0h.22a1.47,1.47,0,0,1,1,.44,1.49,1.49,0,0,1,.42,1v.22l0,4.85v.76a1.38,1.38,0,0,1-.19.7A.16.16,0,0,1,44.09,27.28Z"/></g></svg>