<svg id="Layer_1" data-name="Layer 1" xmlns="http://www.w3.org/2000/svg" viewBox="0 0 64 64"><title>family</title><path d="M45.84,27.14a6.43,6.43,0,1,1,6.43-6.42A6.44,6.44,0,0,1,45.84,27.14Zm0-11.39a5,5,0,1,0,5,5A5,5,0,0,0,45.84,15.75Z"/><path d="M38.39,34.46,37,33.94c1.1-2.88,3.72-7.72,8.9-7.72v1.45C41.62,27.67,39.36,31.92,38.39,34.46Z"/><path d="M45.93,45.17c-.87,0-1.67,0-2.4,0l0-1.45c.71,0,1.5,0,2.35,0Z"/><path d="M45.93,45.17V43.71c6.71,0,7.36-.74,7.6-1,1.79-2,.79-5.49.42-6.79-.56-1.93-2.78-8.22-8-8.22V26.22c6.26,0,8.79,7.09,9.42,9.26.43,1.52,1.59,5.51-.72,8.16C53.93,44.44,52.73,45.17,45.93,45.17Z"/><path d="M18.68,26.9a6.43,6.43,0,1,1,6.43-6.43A6.43,6.43,0,0,1,18.68,26.9Zm0-11.4a5,5,0,1,0,5,5A5,5,0,0,0,18.68,15.5Z"/><path d="M18.59,44.73c-6.8,0-8-.72-8.69-1.53-2.31-2.64-1.16-6.64-.72-8.15.62-2.18,3.16-9.27,9.41-9.27v1.46c-5.24,0-7.46,6.28-8,8.21-.38,1.3-1.37,4.75.41,6.8.25.28.9,1,7.6,1Z"/><path d="M26.13,34c-1-2.53-3.23-6.77-7.54-6.77V25.78c5.18,0,7.8,4.83,8.9,7.71Z"/><polygon points="26.18 34.17 26.13 34.01 27.48 33.49 27.55 33.66 26.18 34.17"/><path d="M18.59,44.73V43.28c.92,0,1.77,0,2.53-.05l.06,1.46C20.4,44.72,19.53,44.73,18.59,44.73Z"/><path d="M32.26,32.48a7.4,7.4,0,1,1,7.4-7.4A7.4,7.4,0,0,1,32.26,32.48Zm0-13.34a5.94,5.94,0,1,0,5.94,5.94A6,6,0,0,0,32.26,19.14Z"/><path d="M22.49,44.11l-1.43-.31c.15-.67.31-1.23.43-1.64.72-2.5,3.63-10.65,10.79-10.65V33c-6.14,0-8.74,7.34-9.39,9.59C22.78,43,22.62,43.49,22.49,44.11Z"/><path d="M32.28,53.21c-7.83,0-9.19-.82-10-1.73-1.55-1.78-2-4.36-1.24-7.68l1.43.31c-.63,2.84-.32,5,.91,6.41.32.37,1.07,1.23,8.88,1.23Z"/><path d="M32.28,53.21V51.75c7.8,0,8.55-.86,8.87-1.23,2.11-2.41,1-6.44.51-8C41,40.31,38.42,33,32.28,33V31.51c7.15,0,10.06,8.15,10.78,10.64.5,1.73,1.82,6.31-.81,9.33C41.46,52.39,40.1,53.21,32.28,53.21Z"/></svg>