<svg id="Layer_1" data-name="Layer 1" xmlns="http://www.w3.org/2000/svg" viewBox="0 0 64 64"><defs><style>.cls-1{fill:#b3b3b3;}</style></defs><title>no_basics</title><path class="cls-1" d="M44.65,52H14.83a.73.73,0,0,1,0-1.46H44.65a.73.73,0,1,1,0,1.46Z"/><path class="cls-1" d="M44.65,47.89H14.83a.73.73,0,1,1,0-1.46H44.65a.73.73,0,0,1,0,1.46Z"/><path class="cls-1" d="M55.81,16.85H45.14a.73.73,0,0,1-.73-.73.73.73,0,0,1,.73-.72H55.81a.72.72,0,0,1,.72.72A.73.73,0,0,1,55.81,16.85Z"/><path class="cls-1" d="M14.83,16.85H9.74A.73.73,0,0,1,9,16.12a.72.72,0,0,1,.73-.72h5.09a.73.73,0,0,1,.73.72A.73.73,0,0,1,14.83,16.85Z"/><path class="cls-1" d="M42.72,56.37h-26a2.61,2.61,0,0,1-2.66-2.54V13a4.06,4.06,0,0,1,3.65-4.12H47.8a.73.73,0,1,1,0,1.45h-30A2.68,2.68,0,0,0,15.56,13V53.83a1.15,1.15,0,0,0,1.2,1.09h26a1.15,1.15,0,0,0,1.2-1.09V16c0-.4-.17-2.63.9-3.81a2.2,2.2,0,0,1,1.68-.74A2.28,2.28,0,0,1,49,13.89a.73.73,0,1,1-1.45,0c0-.5-.13-1-1-1a.76.76,0,0,0-.6.25,4.38,4.38,0,0,0-.52,2.74V53.83A2.6,2.6,0,0,1,42.72,56.37Z"/><path class="cls-1" d="M47.43,50.55H45.14a.73.73,0,1,1,0-1.45h2.29c2,0,2.8-.68,2.8-2.41v-33a5.73,5.73,0,0,0-.33-2.33c-.21-.47-.66-1.08-2.07-1.08a.73.73,0,0,1,0-1.46,3.41,3.41,0,0,1,3.4,1.93,7.09,7.09,0,0,1,.45,2.94v33C51.68,49.25,50.25,50.55,47.43,50.55Z"/></svg>