<svg id="Layer_1" data-name="Layer 1" xmlns="http://www.w3.org/2000/svg" viewBox="0 0 64 64"><defs><style>.cls-1{fill:#b3b3b3;}</style></defs><title>no_fireplace</title><path class="cls-1" d="M51.67,54.69H12.88a1.7,1.7,0,0,1-1.7-1.7V19a.72.72,0,0,1,.73-.72H52.64a.73.73,0,0,1,.73.72V53A1.7,1.7,0,0,1,51.67,54.69Zm-39-34.92V53a.25.25,0,0,0,.25.24H51.67a.24.24,0,0,0,.24-.24V19.77Z"/><path class="cls-1" d="M52.16,19.77H12.88a4.13,4.13,0,0,1-4.13-4.12v-.49A4.13,4.13,0,0,1,12.88,11H52.16a4.13,4.13,0,0,1,4.12,4.12v.49A4.13,4.13,0,0,1,52.16,19.77ZM12.88,12.5a2.67,2.67,0,0,0-2.67,2.66v.49a2.68,2.68,0,0,0,2.67,2.67H52.16a2.67,2.67,0,0,0,2.66-2.67v-.49a2.66,2.66,0,0,0-2.66-2.66Z"/><path class="cls-1" d="M46.34,54.69H18.7A.73.73,0,0,1,18,54V29.45a3.4,3.4,0,0,1,3.42-3.37H43.65a3.39,3.39,0,0,1,3.41,3.37V54A.73.73,0,0,1,46.34,54.69ZM19.42,53.23H45.61V29.45a1.94,1.94,0,0,0-2-1.92H21.39a1.94,1.94,0,0,0-2,1.92Z"/><path class="cls-1" d="M35.67,51.54l-.16,0A6.07,6.07,0,0,1,30.82,46a5.74,5.74,0,0,1,1.68-4.31A1.94,1.94,0,0,0,33,39.17c-1.35-3.78-1.55-5.39-.2-8.08a.72.72,0,0,1,1-.33.73.73,0,0,1,.33,1c-1.07,2.13-1,3.3.27,6.94a3.33,3.33,0,0,1-.82,3.93A4.32,4.32,0,0,0,32.27,46a4.59,4.59,0,0,0,3.56,4.14.73.73,0,0,1-.16,1.44Z"/><path class="cls-1" d="M25.48,48.87H18.7a.73.73,0,0,1,0-1.46h6.78a.73.73,0,0,1,0,1.46Z"/><path class="cls-1" d="M46.34,48.87H39.06a.73.73,0,0,1,0-1.46h7.28a.73.73,0,0,1,0,1.46Z"/><path class="cls-1" d="M33,52c-3.52,0-6.95-.65-8.2-5.37a10.57,10.57,0,0,1,.31-6.28c1.07-3,.66-4,.51-4.17a.74.74,0,0,1,0-.85.73.73,0,0,1,.8-.27c3.6,1.08,4.07,2.68,4.07,4.27l0-.05a2.15,2.15,0,0,0-.12-1.77,4.82,4.82,0,0,1-.2-3.83,6.53,6.53,0,0,1,3.24-3.2.73.73,0,0,1,1,.82s-.54,2.75,1,3.76c2.46,1.73,5.13,4.83,5.29,8.35a8.76,8.76,0,0,1-2.16,6.44A7.33,7.33,0,0,1,33,52ZM27.28,36.93a11.14,11.14,0,0,1-.8,3.92,9.17,9.17,0,0,0-.28,5.42c1,3.59,3.22,4.3,6.8,4.3a6,6,0,0,0,4.48-1.7,7.29,7.29,0,0,0,1.75-5.38c-.13-3-2.59-5.76-4.66-7.21a4.43,4.43,0,0,1-1.68-3.74,4.07,4.07,0,0,0-1.34,1.7,3.37,3.37,0,0,0,.18,2.69,3.54,3.54,0,0,1,.12,3,3.14,3.14,0,0,1-1.77,1.68.74.74,0,0,1-.92-.46A4,4,0,0,1,29,39.64C29.07,38.64,29.1,37.74,27.28,36.93Z"/></svg>