<svg id="Layer_1" data-name="Layer 1" xmlns="http://www.w3.org/2000/svg" viewBox="0 0 64 64"><defs><style>.cls-1{fill:#b3b3b3;}</style></defs><title>no_pets</title><path class="cls-1" d="M25.72,29a5.14,5.14,0,0,1-3.06-1.09,10.82,10.82,0,0,1-3.78-7.08c-.74-5,1.42-9.45,4.82-10a4.94,4.94,0,0,1,3.71,1A10.82,10.82,0,0,1,31.19,19h0c.74,5-1.43,9.45-4.82,10A4.74,4.74,0,0,1,25.72,29ZM24.34,12.3a3.13,3.13,0,0,0-.43,0c-2.56.38-4.2,4.18-3.59,8.31a9.36,9.36,0,0,0,3.21,6.12,3.49,3.49,0,0,0,2.63.77c2.55-.38,4.2-4.18,3.59-8.31h0a9.36,9.36,0,0,0-3.21-6.12A3.72,3.72,0,0,0,24.34,12.3Z"/><path class="cls-1" d="M16,37c-2.28,0-4.79-1.85-6.25-4.82a8.67,8.67,0,0,1-.69-6.43,4.19,4.19,0,0,1,2.12-2.47c2.62-1.23,6.1.72,7.93,4.46h0a8.64,8.64,0,0,1,.69,6.42,4.18,4.18,0,0,1-2.11,2.47A4,4,0,0,1,16,37ZM12.87,24.34a2.38,2.38,0,0,0-1,.22,2.75,2.75,0,0,0-1.36,1.64,7.12,7.12,0,0,0,.62,5.3c1.42,2.91,4.17,4.64,6,3.77a2.73,2.73,0,0,0,1.36-1.63,7.11,7.11,0,0,0-.62-5.3h0C16.67,25.94,14.59,24.34,12.87,24.34Z"/><path class="cls-1" d="M49,37a3.92,3.92,0,0,1-1.68-.37,4.12,4.12,0,0,1-2.11-2.47,8.59,8.59,0,0,1,.68-6.42C47.71,24,51.2,22,53.82,23.24a4.21,4.21,0,0,1,2.11,2.47,8.67,8.67,0,0,1-.69,6.43C53.79,35.11,51.27,37,49,37Zm3.17-12.62c-1.72,0-3.79,1.59-5,4h0a7.16,7.16,0,0,0-.62,5.3,2.73,2.73,0,0,0,1.36,1.63c1.83.87,4.58-.86,6-3.77a7.21,7.21,0,0,0,.62-5.3,2.75,2.75,0,0,0-1.36-1.64A2.43,2.43,0,0,0,52.16,24.34Z"/><path class="cls-1" d="M39,29a4.74,4.74,0,0,1-.65-.05c-3.4-.51-5.56-5-4.82-10a10.82,10.82,0,0,1,3.78-7.08,4.94,4.94,0,0,1,3.71-1c3.4.51,5.56,5,4.82,10a10.82,10.82,0,0,1-3.78,7.08A5.14,5.14,0,0,1,39,29ZM40.4,12.3a3.72,3.72,0,0,0-2.2.81A9.36,9.36,0,0,0,35,19.23h0c-.61,4.13,1,7.93,3.59,8.31a3.49,3.49,0,0,0,2.63-.77,9.36,9.36,0,0,0,3.21-6.12c.61-4.13-1-7.93-3.59-8.31A3.13,3.13,0,0,0,40.4,12.3Z"/><path class="cls-1" d="M23.79,55.39a6.53,6.53,0,0,1-2.93-.64,10.08,10.08,0,0,1-4.92-7v-.08a7.86,7.86,0,0,1,1.15-6.27,16.37,16.37,0,0,1,6.39-5A4.29,4.29,0,0,0,25.86,34l.34-.57c1.52-2.59,3.84-4.14,6.21-4.14v1.46c-1.82,0-3.72,1.31-5,3.42l-.33.56a5.63,5.63,0,0,1-3,2.91,15.15,15.15,0,0,0-5.88,4.57,6.46,6.46,0,0,0-.89,5.15l0,.09a8.65,8.65,0,0,0,4.11,6c1.57.76,3.6.64,6.23-.35,2.33-.89,3-1.15,4.73-1.15v1.45c-1.44,0-2,.2-4.21,1.06A12.66,12.66,0,0,1,23.79,55.39Z"/><path class="cls-1" d="M41,55.39a12.61,12.61,0,0,1-4.44-.94l-.41-.16a8.48,8.48,0,0,0-3.68-.9V51.94a9.84,9.84,0,0,1,4.2,1l.4.16c2.63,1,4.67,1.11,6.23.35a8.66,8.66,0,0,0,4.12-6v-.09a6.46,6.46,0,0,0-.89-5.15,15.19,15.19,0,0,0-5.87-4.57,5.65,5.65,0,0,1-3-2.91l-.33-.56c-1.26-2.14-3.1-3.42-4.91-3.42V29.3c2.33,0,4.64,1.55,6.17,4.14l.33.57a4.29,4.29,0,0,0,2.39,2.34,16.29,16.29,0,0,1,6.39,5,7.82,7.82,0,0,1,1.15,6.27v.08a10.11,10.11,0,0,1-4.91,7A6.6,6.6,0,0,1,41,55.39Z"/></svg>