<svg id="Layer_1" data-name="Layer 1" xmlns="http://www.w3.org/2000/svg" viewBox="0 0 64 64"><defs><style>.cls-1{fill:#b3b3b3;}</style></defs><title>no_shower</title><path class="cls-1" d="M42.32,31.8H24.13v-.73c0-.95,0-1.51,0-2,0-.23,0-.44,0-.67,0-2.53,3-3.82,9-3.82,4,0,9.21.4,9.21,3.82v.86c0,.48,0,.94,0,1.81ZM25.59,30.34H40.86V28.4c0-1.07-1.34-2.36-7.75-2.36-4.78,0-7.52.86-7.52,2.36v1.94Z"/><path class="cls-1" d="M44,36.41H22.44a1.7,1.7,0,0,1-1.7-1.7V34a1.7,1.7,0,0,1,1.7-1.7H44A1.7,1.7,0,0,1,45.71,34v.73A1.7,1.7,0,0,1,44,36.41ZM22.44,33.74a.25.25,0,0,0-.25.24v.73a.25.25,0,0,0,.25.24H44a.24.24,0,0,0,.24-.24V34a.24.24,0,0,0-.24-.24Z"/><path class="cls-1" d="M34.44,24H32V22.41a9.17,9.17,0,0,1,9.16-9.16h2.6v2.42h-2.6a6.75,6.75,0,0,0-6.73,6.74Z"/><path class="cls-1" d="M46.93,19.92H46a1.7,1.7,0,0,1-1.7-1.7v-7A1.7,1.7,0,0,1,46,9.49h1a1.7,1.7,0,0,1,1.69,1.7v7A1.7,1.7,0,0,1,46.93,19.92Zm-1-9a.25.25,0,0,0-.25.24v7a.25.25,0,0,0,.25.24h1a.24.24,0,0,0,.24-.24v-7a.24.24,0,0,0-.24-.24Z"/><path class="cls-1" d="M33.1,45.13a.72.72,0,0,1-.72-.72V38.34a.73.73,0,0,1,1.45,0v6.07A.72.72,0,0,1,33.1,45.13Z"/><path class="cls-1" d="M33.1,57.26a.73.73,0,0,1-.72-.73V46.35a.73.73,0,1,1,1.45,0V56.53A.73.73,0,0,1,33.1,57.26Z"/><path class="cls-1" d="M38.06,45a.73.73,0,0,1-.71-.58l-1.24-5.94a.73.73,0,1,1,1.43-.29l1.24,5.93a.74.74,0,0,1-.57.86Z"/><path class="cls-1" d="M40.62,57.26a.73.73,0,0,1-.71-.58L37.75,46.27A.72.72,0,1,1,39.17,46l2.16,10.4a.72.72,0,0,1-.56.86Z"/><path class="cls-1" d="M48.14,57.26a.73.73,0,0,1-.68-.47l-2.17-5.66a.72.72,0,0,1,.42-.94.74.74,0,0,1,.94.42l2.17,5.66a.74.74,0,0,1-.42.94A.85.85,0,0,1,48.14,57.26Z"/><path class="cls-1" d="M45.27,49.79a.72.72,0,0,1-.67-.46L40.32,38.49A.73.73,0,1,1,41.68,38L46,48.79a.73.73,0,0,1-.41,1A.86.86,0,0,1,45.27,49.79Z"/><path class="cls-1" d="M25.43,57.26l-.15,0a.73.73,0,0,1-.56-.86L26,50.45a.73.73,0,1,1,1.43.29l-1.24,5.94A.73.73,0,0,1,25.43,57.26Z"/><path class="cls-1" d="M27.06,49.42h-.14a.73.73,0,0,1-.57-.86l2.16-10.4a.73.73,0,0,1,1.43.29L27.78,48.85A.74.74,0,0,1,27.06,49.42Z"/><path class="cls-1" d="M22.88,44.61a.75.75,0,0,1-.26,0,.73.73,0,0,1-.42-.94L24.37,38a.73.73,0,0,1,1.36.52l-2.17,5.66A.73.73,0,0,1,22.88,44.61Z"/><path class="cls-1" d="M17.91,57.26a.75.75,0,0,1-.26,0,.73.73,0,0,1-.41-1l4.27-10.84a.73.73,0,1,1,1.35.54L18.59,56.8A.74.74,0,0,1,17.91,57.26Z"/></svg>