<svg id="Layer_1" data-name="Layer 1" xmlns="http://www.w3.org/2000/svg" viewBox="0 0 64 64"><defs><style>.cls-1{fill:#b3b3b3;}</style></defs><title>no_smoking</title><path class="cls-1" d="M56.06,43.89H10A1.94,1.94,0,0,1,8.05,42V38.07A1.94,1.94,0,0,1,10,36.13H56.06A1.94,1.94,0,0,1,58,38.07V42A1.94,1.94,0,0,1,56.06,43.89ZM10,37.58a.5.5,0,0,0-.48.49V42a.49.49,0,0,0,.48.48H56.06a.5.5,0,0,0,.49-.48V38.07a.5.5,0,0,0-.49-.49Z"/><polygon class="cls-1" points="55.58 43.16 54.12 43.16 54.12 37.58 53.39 37.58 53.39 43.16 51.94 43.16 51.94 36.13 55.58 36.13 55.58 43.16"/><rect class="cls-1" x="19.45" y="36.86" width="1.45" height="6.06"/><path class="cls-1" d="M55.82,35.11a.72.72,0,0,1-.72-.65A11.38,11.38,0,0,0,53.52,29a7.64,7.64,0,0,0-2.68-2.69.73.73,0,0,1,.75-1.25,9.1,9.1,0,0,1,3.14,3.13,12.81,12.81,0,0,1,1.82,6.1.73.73,0,0,1-.65.8Z"/><path class="cls-1" d="M53.28,35.15a.73.73,0,0,1-.73-.71,7.48,7.48,0,0,0-2.73-5.71c-.91-.9-1.76-1.75-1.76-3a3.85,3.85,0,0,1,1.73-3.42l.32-.26a.73.73,0,0,1,1,1.1l-.35.29a2.44,2.44,0,0,0-1.2,2.29c0,.64.49,1.15,1.34,2A9,9,0,0,1,54,34.41a.73.73,0,0,1-.71.74Z"/></svg>