<svg id="Layer_1" data-name="Layer 1" xmlns="http://www.w3.org/2000/svg" viewBox="0 0 64 64"><defs><style>.cls-1{fill:#b3b3b3;}</style></defs><title>no_tv</title><path class="cls-1" d="M52.64,46.37H12.39a3.65,3.65,0,0,1-3.64-3.64V19.46a3.65,3.65,0,0,1,3.64-3.64H52.64a3.64,3.64,0,0,1,3.64,3.64V42.73A3.64,3.64,0,0,1,52.64,46.37ZM12.39,17.27a2.19,2.19,0,0,0-2.18,2.19V42.73a2.19,2.19,0,0,0,2.18,2.19H52.64a2.19,2.19,0,0,0,2.18-2.19V19.46a2.19,2.19,0,0,0-2.18-2.19Z"/><path class="cls-1" d="M51.67,43.46H13.36a1.7,1.7,0,0,1-1.7-1.7V20.67a1.7,1.7,0,0,1,1.7-1.7H51.67a1.7,1.7,0,0,1,1.7,1.7V41.76A1.7,1.7,0,0,1,51.67,43.46Zm-38.31-23a.24.24,0,0,0-.24.24V41.76a.25.25,0,0,0,.24.25H51.67a.25.25,0,0,0,.24-.25V20.67a.24.24,0,0,0-.24-.24Z"/><path class="cls-1" d="M41.73,52H23.06v-7H41.73ZM24.52,50.49H40.28V46.37H24.52Z"/><rect class="cls-1" x="16.51" y="50.49" width="31.76" height="1.45"/></svg>