<svg id="Layer_1" data-name="Layer 1" xmlns="http://www.w3.org/2000/svg" viewBox="0 0 64 64"><defs><style>.cls-1{fill:#b3b3b3;}</style></defs><title>no_wifi</title><circle class="cls-1" cx="33.03" cy="44.94" r="3.88"/><path class="cls-1" d="M33,49.43a4.49,4.49,0,1,1,4.48-4.49A4.5,4.5,0,0,1,33,49.43Zm0-7.76a3.27,3.27,0,1,0,3.27,3.27A3.28,3.28,0,0,0,33,41.67Z"/><path class="cls-1" d="M24.74,38.62a1.94,1.94,0,0,1-1.3-3.38,14.53,14.53,0,0,1,9.76-3.76,15.58,15.58,0,0,1,9.28,3.39,1.94,1.94,0,1,1-2.56,2.92,11.79,11.79,0,0,0-6.72-2.43A10.66,10.66,0,0,0,26,38.12,1.94,1.94,0,0,1,24.74,38.62Z"/><path class="cls-1" d="M19.93,31.88a1.94,1.94,0,0,1-1.23-3.44,22.85,22.85,0,0,1,14.5-5.2A22.56,22.56,0,0,1,47,27.88,1.94,1.94,0,0,1,44.63,31a18.9,18.9,0,0,0-23.46.47A2,2,0,0,1,19.93,31.88Z"/><path class="cls-1" d="M15.57,25.43A1.94,1.94,0,0,1,14.37,22a30.57,30.57,0,0,1,37.29-.29,1.94,1.94,0,0,1-2.35,3.09A26.7,26.7,0,0,0,16.76,25,1.89,1.89,0,0,1,15.57,25.43Z"/></svg>