<svg id="Layer_1" data-name="Layer 1" xmlns="http://www.w3.org/2000/svg" viewBox="0 0 64 64"><defs><style>.cls-1{fill:#b3b3b3;}.cls-2{fill:#8be1ff;}</style></defs><title>no_washingmachine</title><path class="cls-1" d="M52.64,57.14H12.39A3.65,3.65,0,0,1,8.75,53.5V13.25a3.65,3.65,0,0,1,3.64-3.64H52.64a3.64,3.64,0,0,1,3.64,3.64V53.5A3.65,3.65,0,0,1,52.64,57.14ZM12.39,11.07a2.19,2.19,0,0,0-2.18,2.18V53.5a2.19,2.19,0,0,0,2.18,2.18H52.64a2.19,2.19,0,0,0,2.18-2.18V13.25a2.19,2.19,0,0,0-2.18-2.18Z"/><path class="cls-1" d="M32.4,53.22A14.53,14.53,0,0,1,17.88,38.71v-.1a12.91,12.91,0,0,1,.67-4.27c1.71-5.06,7-10.17,13.85-10.15A14.75,14.75,0,0,1,46.91,38.71,14.53,14.53,0,0,1,32.4,53.22Zm0-27.57c-6.12,0-10.88,4.6-12.42,9.16a10.93,10.93,0,0,0-.59,3.8v.1a13.06,13.06,0,0,0,26.12,0c0-7.79-6.76-13-13.07-13.06Z"/><path class="cls-1" d="M14.09,16.16A2.19,2.19,0,1,1,16.27,14,2.19,2.19,0,0,1,14.09,16.16Zm0-3.4A1.22,1.22,0,1,0,15.3,14,1.22,1.22,0,0,0,14.09,12.76Z"/><path class="cls-1" d="M19.18,16.16A2.19,2.19,0,1,1,21.36,14,2.19,2.19,0,0,1,19.18,16.16Zm0-3.4A1.22,1.22,0,1,0,20.39,14,1.22,1.22,0,0,0,19.18,12.76Z"/><path class="cls-1" d="M24.27,16.16A2.19,2.19,0,1,1,26.45,14,2.19,2.19,0,0,1,24.27,16.16Zm0-3.4A1.22,1.22,0,1,0,25.48,14,1.22,1.22,0,0,0,24.27,12.76Z"/><path class="cls-1" d="M45.8,39.51a.67.67,0,0,1-.38-.11c-4.51-2.8-6.36-2.92-8.49-2.79A14.05,14.05,0,0,0,32.1,38a12.93,12.93,0,0,1-5.23,1.41c-4.69,0-6.72-1.71-7.69-2.53a3,3,0,0,0-.4-.32.73.73,0,0,1,.7-1.28,4.57,4.57,0,0,1,.64.49C21,36.55,22.71,38,26.87,38a11.79,11.79,0,0,0,4.65-1.29,15.36,15.36,0,0,1,5.33-1.54c2.71-.16,4.9.26,9.34,3a.74.74,0,0,1,.23,1A.72.72,0,0,1,45.8,39.51Z"/><path class="cls-2" d="M21.34,39.46c-.08,7.16,6.29,10.81,11.54,10.81,6.21,0,10.58-5.58,10.58-10-3-1.9-4.5-2.19-5.89-2.19a13.37,13.37,0,0,0-4.84,1.24A14.25,14.25,0,0,1,27.4,41C25.66,41.05,22.57,40.6,21.34,39.46Z"/><path class="cls-1" d="M52.16,18.34H12.63a.73.73,0,0,1,0-1.45H52.16a.73.73,0,0,1,0,1.45Z"/></svg>