<svg id="Layer_1" data-name="Layer 1" xmlns="http://www.w3.org/2000/svg" viewBox="0 0 64 64"><title>pets</title><path d="M25.47,29a5.11,5.11,0,0,1-3.06-1.09,10.83,10.83,0,0,1-3.79-7.08c-.73-5,1.43-9.45,4.82-10a4.93,4.93,0,0,1,3.71,1A10.83,10.83,0,0,1,30.94,19h0c.73,5-1.43,9.45-4.82,10A4.87,4.87,0,0,1,25.47,29ZM24.09,12.3a3,3,0,0,0-.43,0c-2.56.38-4.21,4.18-3.6,8.31a9.36,9.36,0,0,0,3.21,6.12,3.52,3.52,0,0,0,2.63.77c2.56-.38,4.21-4.18,3.6-8.31h0a9.36,9.36,0,0,0-3.21-6.12A3.74,3.74,0,0,0,24.09,12.3Z"/><path d="M15.79,37c-2.29,0-4.8-1.85-6.25-4.82a8.62,8.62,0,0,1-.69-6.43A4.15,4.15,0,0,1,11,23.24C13.58,22,17.07,24,18.9,27.7a8.64,8.64,0,0,1,.68,6.42,4.12,4.12,0,0,1-2.11,2.47A3.92,3.92,0,0,1,15.79,37ZM12.61,24.34a2.41,2.41,0,0,0-1,.22,2.75,2.75,0,0,0-1.36,1.64,7.21,7.21,0,0,0,.62,5.3c1.43,2.91,4.18,4.64,6,3.77a2.73,2.73,0,0,0,1.36-1.63,7.16,7.16,0,0,0-.62-5.3C16.41,25.94,14.33,24.34,12.61,24.34Z"/><path d="M48.73,37a4,4,0,0,1-1.68-.37,4.18,4.18,0,0,1-2.11-2.47,8.64,8.64,0,0,1,.69-6.42C47.46,24,50.94,22,53.56,23.24a4.15,4.15,0,0,1,2.11,2.47A8.61,8.61,0,0,1,55,32.14C53.53,35.11,51,37,48.73,37Zm3.18-12.62c-1.72,0-3.8,1.59-5,4h0a7.17,7.17,0,0,0-.63,5.3,2.8,2.8,0,0,0,1.36,1.63c1.83.87,4.59-.86,6-3.77a7.12,7.12,0,0,0,.62-5.3,2.75,2.75,0,0,0-1.36-1.64A2.41,2.41,0,0,0,51.91,24.34Z"/><path d="M38.76,29a4.87,4.87,0,0,1-.65-.05c-3.39-.51-5.55-5-4.82-10h0a10.83,10.83,0,0,1,3.79-7.08,4.93,4.93,0,0,1,3.71-1c3.39.51,5.55,5,4.82,10a10.83,10.83,0,0,1-3.79,7.08A5.11,5.11,0,0,1,38.76,29Zm-4-9.8c-.6,4.13,1,7.93,3.6,8.31A3.52,3.52,0,0,0,41,26.77a9.36,9.36,0,0,0,3.21-6.12c.61-4.13-1-7.93-3.6-8.31a3.52,3.52,0,0,0-2.63.77,9.36,9.36,0,0,0-3.21,6.12Z"/><path d="M23.54,55.39a6.57,6.57,0,0,1-2.94-.64,10.08,10.08,0,0,1-4.91-7l0-.08a7.85,7.85,0,0,1,1.16-6.27,16.29,16.29,0,0,1,6.39-5A4.29,4.29,0,0,0,25.61,34l.33-.57c1.53-2.59,3.85-4.14,6.21-4.14v1.46c-1.81,0-3.71,1.31-4.95,3.42l-.33.56a5.65,5.65,0,0,1-3,2.91A15.19,15.19,0,0,0,18,42.22a6.42,6.42,0,0,0-.89,5.15v.09a8.66,8.66,0,0,0,4.12,6c1.56.76,3.6.64,6.23-.35,2.32-.89,3-1.15,4.73-1.15v1.45c-1.44,0-2,.2-4.22,1.06A12.61,12.61,0,0,1,23.54,55.39Z"/><path d="M40.73,55.39a12.66,12.66,0,0,1-4.45-.94l-.4-.16a8.51,8.51,0,0,0-3.68-.9V51.94a9.84,9.84,0,0,1,4.2,1l.4.16c2.63,1,4.66,1.11,6.23.35a8.68,8.68,0,0,0,4.11-6l0-.09a6.46,6.46,0,0,0-.89-5.15,15.15,15.15,0,0,0-5.88-4.57,5.69,5.69,0,0,1-3-2.91c-.09-.17-.2-.36-.32-.56C35.81,32,34,30.76,32.15,30.76V29.3c2.34,0,4.65,1.55,6.17,4.14l.33.57a4.31,4.31,0,0,0,2.4,2.34,16.37,16.37,0,0,1,6.39,5,7.86,7.86,0,0,1,1.15,6.27v.08a10.11,10.11,0,0,1-4.92,7A6.56,6.56,0,0,1,40.73,55.39Z"/></svg>