<svg id="Layer_1" data-name="Layer 1" xmlns="http://www.w3.org/2000/svg" viewBox="0 0 64 64"><title>smoking</title><path d="M55.81,43.89H9.74A1.94,1.94,0,0,1,7.8,42V38.07a1.94,1.94,0,0,1,1.94-1.94H55.81a1.94,1.94,0,0,1,1.94,1.94V42A1.94,1.94,0,0,1,55.81,43.89ZM9.74,37.58a.5.5,0,0,0-.49.49V42a.49.49,0,0,0,.49.48H55.81a.49.49,0,0,0,.48-.48V38.07a.5.5,0,0,0-.48-.49Z"/><polygon points="55.32 43.16 53.87 43.16 53.87 37.58 53.14 37.58 53.14 43.16 51.68 43.16 51.68 36.13 55.32 36.13 55.32 43.16"/><rect x="19.19" y="36.86" width="1.45" height="6.06"/><path d="M55.57,35.11a.72.72,0,0,1-.72-.65A11.27,11.27,0,0,0,53.26,29a7.56,7.56,0,0,0-2.68-2.69.74.74,0,0,1-.25-1,.72.72,0,0,1,1-.25,9,9,0,0,1,3.14,3.13,12.7,12.7,0,0,1,1.82,6.1.72.72,0,0,1-.64.8Z"/><path d="M53,35.15a.72.72,0,0,1-.72-.71,7.49,7.49,0,0,0-2.74-5.71c-.9-.9-1.76-1.75-1.76-3a3.85,3.85,0,0,1,1.74-3.42l.31-.26a.73.73,0,0,1,1,.08.72.72,0,0,1-.08,1l-.35.29a2.45,2.45,0,0,0-1.19,2.29c0,.64.48,1.15,1.33,2a8.93,8.93,0,0,1,3.16,6.71.73.73,0,0,1-.71.74Z"/></svg>