<svg id="Layer_1" data-name="Layer 1" xmlns="http://www.w3.org/2000/svg" viewBox="0 0 64 64"><title>tv</title><path d="M52.39,46.37H12.14A3.64,3.64,0,0,1,8.5,42.73V19.46a3.64,3.64,0,0,1,3.64-3.64H52.39A3.64,3.64,0,0,1,56,19.46V42.73A3.64,3.64,0,0,1,52.39,46.37ZM12.14,17.27A2.19,2.19,0,0,0,10,19.46V42.73a2.19,2.19,0,0,0,2.19,2.19H52.39a2.19,2.19,0,0,0,2.18-2.19V19.46a2.19,2.19,0,0,0-2.18-2.19Z"/><path d="M51.42,43.46H13.11a1.7,1.7,0,0,1-1.7-1.7V20.67a1.7,1.7,0,0,1,1.7-1.7H51.42a1.7,1.7,0,0,1,1.69,1.7V41.76A1.7,1.7,0,0,1,51.42,43.46Zm-38.31-23a.25.25,0,0,0-.25.24V41.76a.26.26,0,0,0,.25.25H51.42a.25.25,0,0,0,.24-.25V20.67a.24.24,0,0,0-.24-.24Z"/><path d="M41.48,52H22.81v-7H41.48ZM24.26,50.49H40V46.37H24.26Z"/><rect x="16.26" y="50.49" width="31.76" height="1.45"/></svg>