<svg id="Layer_1" data-name="Layer 1" xmlns="http://www.w3.org/2000/svg" viewBox="0 0 64 64"><defs><style>.cls-1{fill:#3fe1ff;}</style></defs><title>washingmachine</title><path d="M52.39,57.14H12.14A3.65,3.65,0,0,1,8.5,53.5V13.25a3.64,3.64,0,0,1,3.64-3.64H52.39A3.64,3.64,0,0,1,56,13.25V53.5A3.64,3.64,0,0,1,52.39,57.14ZM12.14,11.07A2.19,2.19,0,0,0,10,13.25V53.5a2.19,2.19,0,0,0,2.19,2.18H52.39a2.19,2.19,0,0,0,2.18-2.18V13.25a2.19,2.19,0,0,0-2.18-2.18Z"/><path d="M32.14,53.22A14.53,14.53,0,0,1,17.63,38.71v-.1a12.37,12.37,0,0,1,.67-4.27c1.71-5.05,7-10.15,13.8-10.15h0A14.76,14.76,0,0,1,46.66,38.71,14.54,14.54,0,0,1,32.14,53.22Zm0-27.57c-6.12,0-10.88,4.6-12.43,9.16a11.46,11.46,0,0,0-.59,3.8v.1a13.06,13.06,0,0,0,26.12,0c0-7.79-6.75-13-13.06-13.06Z"/><path d="M13.83,16.16A2.19,2.19,0,1,1,16,14,2.19,2.19,0,0,1,13.83,16.16Zm0-3.4A1.22,1.22,0,1,0,15.05,14,1.22,1.22,0,0,0,13.83,12.76Z"/><path d="M18.93,16.16A2.19,2.19,0,1,1,21.11,14,2.19,2.19,0,0,1,18.93,16.16Zm0-3.4A1.22,1.22,0,1,0,20.14,14,1.22,1.22,0,0,0,18.93,12.76Z"/><path d="M24,16.16A2.19,2.19,0,1,1,26.2,14,2.18,2.18,0,0,1,24,16.16Zm0-3.4A1.22,1.22,0,1,0,25.23,14,1.22,1.22,0,0,0,24,12.76Z"/><path d="M45.55,39.51a.67.67,0,0,1-.38-.11c-4.52-2.8-6.37-2.92-8.49-2.79A14,14,0,0,0,31.84,38a12.89,12.89,0,0,1-5.23,1.41c-4.69,0-6.71-1.71-7.68-2.53a3.85,3.85,0,0,0-.4-.32.71.71,0,0,1-.29-1,.72.72,0,0,1,1-.3,4.6,4.6,0,0,1,.65.49c.9.76,2.59,2.19,6.74,2.19a11.84,11.84,0,0,0,4.66-1.29,15.24,15.24,0,0,1,5.32-1.54c2.71-.16,4.9.26,9.34,3a.73.73,0,0,1-.38,1.35Z"/><path class="cls-1" d="M21.08,39.46c-.08,7.16,6.3,10.81,11.54,10.81,6.22,0,10.58-5.58,10.58-10-3-1.9-4.5-2.19-5.88-2.19a13.41,13.41,0,0,0-4.85,1.24A14.19,14.19,0,0,1,27.14,41C25.41,41.05,22.31,40.6,21.08,39.46Z"/><path d="M51.9,18.34H12.38a.73.73,0,1,1,0-1.45H51.9a.73.73,0,1,1,0,1.45Z"/></svg>