<svg id="Layer_1" data-name="Layer 1" xmlns="http://www.w3.org/2000/svg" viewBox="0 0 64 64"><title>wifi</title><circle cx="32.77" cy="44.94" r="3.88"/><path d="M32.77,49.43a4.49,4.49,0,1,1,4.49-4.49A4.49,4.49,0,0,1,32.77,49.43Zm0-7.76A3.27,3.27,0,1,0,36,44.94,3.28,3.28,0,0,0,32.77,41.67Z"/><path d="M24.49,38.62a1.94,1.94,0,0,1-1.31-3.38,14.55,14.55,0,0,1,9.76-3.76,15.56,15.56,0,0,1,9.28,3.39,1.94,1.94,0,0,1-2.55,2.92,11.8,11.8,0,0,0-6.73-2.43,10.61,10.61,0,0,0-7.15,2.76A2,2,0,0,1,24.49,38.62Z"/><path d="M19.68,31.88a1.94,1.94,0,0,1-1.24-3.44,22.87,22.87,0,0,1,14.5-5.2,22.59,22.59,0,0,1,13.79,4.64A1.94,1.94,0,0,1,44.38,31a18.74,18.74,0,0,0-11.44-3.85,18.93,18.93,0,0,0-12,4.32A2,2,0,0,1,19.68,31.88Z"/><path d="M15.32,25.43A1.94,1.94,0,0,1,14.12,22a30.56,30.56,0,0,1,37.28-.29,1.94,1.94,0,1,1-2.35,3.09A26.68,26.68,0,0,0,16.51,25,1.91,1.91,0,0,1,15.32,25.43Z"/></svg>